<?xml version="1.0" encoding="iso-8859-1"?>
<!-- Generator: Adobe Illustrator 19.0.0, SVG Export Plug-In . SVG Version: 6.00 Build 0)  -->
<svg version="1.1" id="Capa_1" xmlns="http://www.w3.org/2000/svg" xmlns:xlink="http://www.w3.org/1999/xlink" x="0px" y="0px"
	 viewBox="0 0 512.001 512.001" style="enable-background:new 0 0 512.001 512.001;" xml:space="preserve">
<path style="fill:#282828;" d="M465.662,286.197v54.248H347.936v-54.248h-30v54.248H194.064v-54.248h-30v54.248H46.338v-54.248h-30
	v108.907c0,8.284,6.716,15,15,15s15-6.716,15-15v-24.659h117.727v24.659c0,8.284,6.716,15,15,15s15-6.716,15-15v-24.659h123.871
	v24.659c0,8.284,6.716,15,15,15s15-6.716,15-15v-24.659h117.727v21.971c0,8.284,6.716,15,15,15s15-6.716,15-15V286.197H465.662z"/>
<path style="fill:#48555E;" d="M256,340.444h-61.936v-54.248h-30v54.248H46.338v-54.248h-30v108.907c0,8.284,6.716,15,15,15
	s15-6.716,15-15v-24.659h117.727v24.659c0,8.284,6.716,15,15,15s15-6.716,15-15v-24.659H256V340.444z"/>
<rect y="116.89" style="fill:#B0C2D4;" width="170.67" height="169.4"/>
<rect y="116.89" style="fill:#F0F8FA;" width="85.33" height="169.4"/>
<rect x="170.67" y="116.89" style="fill:#B0C2D4;" width="170.67" height="169.4"/>
<rect x="170.67" y="116.89" style="fill:#F0F8FA;" width="85.33" height="169.4"/>
<rect x="341.33" y="116.89" style="fill:#B0C2D4;" width="170.67" height="169.4"/>
<rect x="341.33" y="116.89" style="fill:#F0F8FA;" width="85.33" height="169.4"/>
<rect y="270.82" style="fill:#E3852D;" width="170.67" height="44.645"/>
<rect y="270.82" style="fill:#FF9F22;" width="85.33" height="44.645"/>
<rect x="170.67" y="270.82" style="fill:#E3852D;" width="170.67" height="44.645"/>
<rect x="170.67" y="270.82" style="fill:#FF9F22;" width="85.33" height="44.645"/>
<rect x="341.33" y="270.82" style="fill:#E3852D;" width="170.67" height="44.645"/>
<g>
	<rect x="341.33" y="270.82" style="fill:#FF9F22;" width="85.33" height="44.645"/>
	<path style="fill:#FF9F22;" d="M30.613,270.816H0V111.463c0-5.283,4.283-9.566,9.566-9.566h11.482c5.283,0,9.566,4.283,9.566,9.566
		L30.613,270.816L30.613,270.816z"/>
	<path style="fill:#FF9F22;" d="M185.973,270.816H155.36V111.463c0-5.283,4.283-9.566,9.566-9.566h11.482
		c5.283,0,9.566,4.283,9.566,9.566L185.973,270.816L185.973,270.816z"/>
	<path style="fill:#FF9F22;" d="M356.64,270.816h-30.613V111.463c0-5.283,4.283-9.566,9.566-9.566h11.482
		c5.283,0,9.566,4.283,9.566,9.566v159.353H356.64z"/>
	<path style="fill:#FF9F22;" d="M512,270.816h-30.613V111.463c0-5.283,4.283-9.566,9.566-9.566h11.482
		c5.283,0,9.566,4.283,9.566,9.566L512,270.816L512,270.816z"/>
</g>
<g>
</g>
<g>
</g>
<g>
</g>
<g>
</g>
<g>
</g>
<g>
</g>
<g>
</g>
<g>
</g>
<g>
</g>
<g>
</g>
<g>
</g>
<g>
</g>
<g>
</g>
<g>
</g>
<g>
</g>
</svg>
