<svg height="512pt" viewBox="-84 0 512 512.002" width="512pt" xmlns="http://www.w3.org/2000/svg"><path d="m304 296.003906v152h-264v-152zm0 0" fill="#656d78"/><path d="m304 112.003906v152h-264v-152zm0 0" fill="#656d78"/><path d="m336 80.003906v400h-328v-400h56v32h-24v152h264v-152h-24v-32zm-32 368v-152h-264v152zm0 0" fill="#434a54"/><path d="m264 48.003906h-40v-40zm0 0" fill="#f5f7fa"/><path d="m264 72.003906h-136l-16-16h-32v-48h144v40h40zm0 0" fill="#e6e9ed"/><path d="m128 72.003906h152v40h-216v-56h48zm0 0" fill="#ffce54"/><path d="m40 480.003906h64v24h-64zm0 0" fill="#353b44"/><path d="m240 480.003906h64v24h-64zm0 0" fill="#353b44"/><path d="m144 184.003906h56v-4c0-6.640625 5.359375-12 12-12s12 5.359375 12 12v16c0 6.636719-5.359375 12-12 12h-80c-6.640625 0-12-5.363281-12-12v-16c0-6.640625 5.359375-12 12-12s12 5.359375 12 12zm0 0" fill="#ccd1d9"/><path d="m144 368.003906h56v-4c0-6.640625 5.359375-12 12-12s12 5.359375 12 12v16c0 6.636719-5.359375 12-12 12h-80c-6.640625 0-12-5.363281-12-12v-16c0-6.640625 5.359375-12 12-12s12 5.359375 12 12zm0 0" fill="#ccd1d9"/><path d="m336 488.003906h-328c-4.421875 0-8-3.578125-8-8v-400c0-4.425781 3.578125-8 8-8 4.425781 0 8 3.574219 8 8v392h312v-392c0-4.425781 3.578125-8 8-8 4.425781 0 8 3.574219 8 8v400c0 4.421875-3.574219 8-8 8zm0 0"/><path d="m304 272.003906h-264c-4.421875 0-8-3.578125-8-8v-152c0-4.425781 3.578125-8 8-8h264c4.425781 0 8 3.574219 8 8v152c0 4.421875-3.574219 8-8 8zm-256-16h248v-136h-248zm0 0"/><path d="m304 456.003906h-264c-4.421875 0-8-3.578125-8-8v-152c0-4.425781 3.578125-8 8-8h264c4.425781 0 8 3.574219 8 8v152c0 4.421875-3.574219 8-8 8zm-256-16h248v-136h-248zm0 0"/><path d="m64 120.003906c-4.421875 0-8-3.578125-8-8v-56c0-4.425781 3.578125-8 8-8 4.425781 0 8 3.574219 8 8v56c0 4.421875-3.574219 8-8 8zm0 0"/><path d="m280 120.003906c-4.421875 0-8-3.578125-8-8v-40c0-4.425781 3.578125-8 8-8 4.425781 0 8 3.574219 8 8v40c0 4.421875-3.574219 8-8 8zm0 0"/><path d="m280 80.003906h-152c-4.421875 0-8-3.578125-8-8 0-4.425781 3.578125-8 8-8h152c4.425781 0 8 3.574219 8 8 0 4.421875-3.574219 8-8 8zm0 0"/><path d="m128 80.003906c-2.046875 0-4.09375-.785156-5.65625-2.347656l-16-16c-3.125-3.125-3.125-8.183594 0-11.308594 3.128906-3.128906 8.183594-3.128906 11.3125 0l16 16c3.128906 3.125 3.128906 8.183594 0 11.308594-1.558594 1.5625-3.605469 2.347656-5.65625 2.347656zm0 0"/><path d="m112 64.003906h-48c-4.421875 0-8-3.578125-8-8 0-4.425781 3.578125-8 8-8h48c4.425781 0 8 3.574219 8 8 0 4.421875-3.574219 8-8 8zm0 0"/><path d="m80 64.003906c-4.421875 0-8-3.578125-8-8v-48c0-4.425781 3.578125-7.99999975 8-7.99999975 4.425781 0 8 3.57421875 8 7.99999975v48c0 4.421875-3.574219 8-8 8zm0 0"/><path d="m224 16.003906h-144c-4.421875 0-8-3.578125-8-8 0-4.425781 3.578125-7.99999975 8-7.99999975h144c4.425781 0 8 3.57421875 8 7.99999975 0 4.421875-3.574219 8-8 8zm0 0"/><path d="m264 72.003906c-4.421875 0-8-3.578125-8-8v-16c0-4.425781 3.578125-8 8-8 4.425781 0 8 3.574219 8 8v16c0 4.421875-3.574219 8-8 8zm0 0"/><path d="m264 56.003906c-2.046875 0-4.09375-.785156-5.65625-2.347656l-40-40c-3.125-3.125-3.125-8.183594 0-11.308594 3.128906-3.128906 8.183594-3.128906 11.3125 0l40 40c3.128906 3.125 3.128906 8.183594 0 11.308594-1.558594 1.5625-3.605469 2.347656-5.65625 2.347656zm0 0"/><path d="m264 56.003906h-40c-4.421875 0-8-3.578125-8-8 0-4.425781 3.578125-8 8-8h40c4.425781 0 8 3.574219 8 8 0 4.421875-3.574219 8-8 8zm0 0"/><path d="m224 56.003906c-4.421875 0-8-3.578125-8-8v-40c0-4.425781 3.578125-7.99999975 8-7.99999975 4.425781 0 8 3.57421875 8 7.99999975v40c0 4.421875-3.574219 8-8 8zm0 0"/><path d="m64 88.003906h-56c-4.421875 0-8-3.578125-8-8 0-4.425781 3.578125-8 8-8h56c4.425781 0 8 3.574219 8 8 0 4.421875-3.574219 8-8 8zm0 0"/><path d="m336 88.003906h-56c-4.421875 0-8-3.578125-8-8 0-4.425781 3.578125-8 8-8h56c4.425781 0 8 3.574219 8 8 0 4.421875-3.574219 8-8 8zm0 0"/><path d="m40 512.003906c-4.421875 0-8-3.578125-8-8v-24c0-4.425781 3.578125-8 8-8 4.425781 0 8 3.574219 8 8v24c0 4.421875-3.574219 8-8 8zm0 0"/><path d="m104 512.003906c-4.421875 0-8-3.578125-8-8v-24c0-4.425781 3.578125-8 8-8 4.425781 0 8 3.574219 8 8v24c0 4.421875-3.574219 8-8 8zm0 0"/><path d="m104 512.003906h-64c-4.421875 0-8-3.578125-8-8 0-4.425781 3.578125-8 8-8h64c4.425781 0 8 3.574219 8 8 0 4.421875-3.574219 8-8 8zm0 0"/><path d="m240 512.003906c-4.421875 0-8-3.578125-8-8v-24c0-4.425781 3.578125-8 8-8 4.425781 0 8 3.574219 8 8v24c0 4.421875-3.574219 8-8 8zm0 0"/><path d="m304 512.003906c-4.421875 0-8-3.578125-8-8v-24c0-4.425781 3.578125-8 8-8 4.425781 0 8 3.574219 8 8v24c0 4.421875-3.574219 8-8 8zm0 0"/><path d="m304 512.003906h-64c-4.421875 0-8-3.578125-8-8 0-4.425781 3.578125-8 8-8h64c4.425781 0 8 3.574219 8 8 0 4.421875-3.574219 8-8 8zm0 0"/><path d="m144 188.003906c-4.421875 0-8-3.578125-8-8 0-2.203125-1.800781-4-4-4s-4 1.796875-4 4c0 4.421875-3.574219 8-8 8-4.421875 0-8-3.578125-8-8 0-11.035156 8.96875-20 20-20s20 8.964844 20 20c0 4.421875-3.574219 8-8 8zm0 0"/><path d="m224 188.003906c-4.421875 0-8-3.578125-8-8 0-2.203125-1.800781-4-4-4s-4 1.796875-4 4c0 4.421875-3.574219 8-8 8-4.421875 0-8-3.578125-8-8 0-11.035156 8.96875-20 20-20s20 8.964844 20 20c0 4.421875-3.574219 8-8 8zm0 0"/><path d="m212 216.003906c-4.421875 0-8-3.578125-8-8 0-4.425781 3.578125-8 8-8 2.199219 0 4-1.800781 4-4 0-4.425781 3.578125-8 8-8 4.425781 0 8 3.574219 8 8 0 11.03125-8.96875 20-20 20zm0 0"/><path d="m224 204.003906c-4.421875 0-8-3.578125-8-8v-16c0-4.425781 3.578125-8 8-8 4.425781 0 8 3.574219 8 8v16c0 4.421875-3.574219 8-8 8zm0 0"/><path d="m132 216.003906c-11.03125 0-20-8.96875-20-20 0-4.425781 3.578125-8 8-8 4.425781 0 8 3.574219 8 8 0 2.199219 1.800781 4 4 4 4.425781 0 8 3.574219 8 8 0 4.421875-3.574219 8-8 8zm0 0"/><path d="m120 204.003906c-4.421875 0-8-3.578125-8-8v-16c0-4.425781 3.578125-8 8-8 4.425781 0 8 3.574219 8 8v16c0 4.421875-3.574219 8-8 8zm0 0"/><path d="m200 192.003906c-4.421875 0-8-3.578125-8-8v-4c0-4.425781 3.578125-8 8-8 4.425781 0 8 3.574219 8 8v4c0 4.421875-3.574219 8-8 8zm0 0"/><path d="m212 216.003906h-76c-4.421875 0-8-3.578125-8-8 0-4.425781 3.578125-8 8-8h76c4.425781 0 8 3.574219 8 8 0 4.421875-3.574219 8-8 8zm0 0"/><path d="m144 192.003906c-4.421875 0-8-3.578125-8-8v-4c0-4.425781 3.578125-8 8-8 4.425781 0 8 3.574219 8 8v4c0 4.421875-3.574219 8-8 8zm0 0"/><path d="m200 192.003906h-56c-4.421875 0-8-3.578125-8-8 0-4.425781 3.578125-8 8-8h56c4.425781 0 8 3.574219 8 8 0 4.421875-3.574219 8-8 8zm0 0"/><path d="m144 372.003906c-4.421875 0-8-3.578125-8-8 0-2.203125-1.800781-4-4-4s-4 1.796875-4 4c0 4.421875-3.574219 8-8 8-4.421875 0-8-3.578125-8-8 0-11.035156 8.96875-20 20-20s20 8.964844 20 20c0 4.421875-3.574219 8-8 8zm0 0"/><path d="m224 372.003906c-4.421875 0-8-3.578125-8-8 0-2.203125-1.800781-4-4-4s-4 1.796875-4 4c0 4.421875-3.574219 8-8 8-4.421875 0-8-3.578125-8-8 0-11.035156 8.96875-20 20-20s20 8.964844 20 20c0 4.421875-3.574219 8-8 8zm0 0"/><path d="m212 400.003906c-4.421875 0-8-3.578125-8-8 0-4.425781 3.578125-8 8-8 2.199219 0 4-1.800781 4-4 0-4.425781 3.578125-8 8-8 4.425781 0 8 3.574219 8 8 0 11.03125-8.96875 20-20 20zm0 0"/><path d="m224 388.003906c-4.421875 0-8-3.578125-8-8v-16c0-4.425781 3.578125-8 8-8 4.425781 0 8 3.574219 8 8v16c0 4.421875-3.574219 8-8 8zm0 0"/><path d="m132 400.003906c-11.03125 0-20-8.96875-20-20 0-4.425781 3.578125-8 8-8 4.425781 0 8 3.574219 8 8 0 2.199219 1.800781 4 4 4 4.425781 0 8 3.574219 8 8 0 4.421875-3.574219 8-8 8zm0 0"/><path d="m120 388.003906c-4.421875 0-8-3.578125-8-8v-16c0-4.425781 3.578125-8 8-8 4.425781 0 8 3.574219 8 8v16c0 4.421875-3.574219 8-8 8zm0 0"/><path d="m200 376.003906c-4.421875 0-8-3.578125-8-8v-4c0-4.425781 3.578125-8 8-8 4.425781 0 8 3.574219 8 8v4c0 4.421875-3.574219 8-8 8zm0 0"/><path d="m212 400.003906h-76c-4.421875 0-8-3.578125-8-8 0-4.425781 3.578125-8 8-8h76c4.425781 0 8 3.574219 8 8 0 4.421875-3.574219 8-8 8zm0 0"/><path d="m144 376.003906c-4.421875 0-8-3.578125-8-8v-4c0-4.425781 3.578125-8 8-8 4.425781 0 8 3.574219 8 8v4c0 4.421875-3.574219 8-8 8zm0 0"/><path d="m200 376.003906h-56c-4.421875 0-8-3.578125-8-8 0-4.425781 3.578125-8 8-8h56c4.425781 0 8 3.574219 8 8 0 4.421875-3.574219 8-8 8zm0 0"/></svg>