<?xml version="1.0" encoding="iso-8859-1"?>
<!-- Generator: Adobe Illustrator 19.0.0, SVG Export Plug-In . SVG Version: 6.00 Build 0)  -->
<svg version="1.1" id="Capa_1" xmlns="http://www.w3.org/2000/svg" xmlns:xlink="http://www.w3.org/1999/xlink" x="0px" y="0px"
	 viewBox="0 0 512.004 512.004" style="enable-background:new 0 0 512.004 512.004;" xml:space="preserve">
<path style="fill:#FF7260;" d="M320.002,386.56c31.15,25.032,75.517,25.032,106.667,0v114.773l-53.333-42.667l-53.333,42.667V386.56
	z"/>
<path style="fill:#FFE451;" d="M426.669,386.56c-31.15,25.032-75.517,25.032-106.667,0c-8.313-6.59-15.299-14.698-20.587-23.893
	c-23.578-40.806-9.613-93,31.193-116.578c40.806-23.578,93-9.613,116.578,31.193C468.275,313.776,459.558,360.2,426.669,386.56z
	 M416.002,320c0-23.564-19.103-42.667-42.667-42.667c-23.564,0-42.667,19.103-42.667,42.667c0,23.564,19.103,42.667,42.667,42.667
	l0,0C396.9,362.667,416.002,343.564,416.002,320L416.002,320z"/>
<circle style="fill:#FFBF51;" cx="373.336" cy="320" r="42.667"/>
<path style="fill:#F2F2F2;" d="M149.336,117.333h213.333V160H149.336V117.333z"/>
<path style="fill:#AAC4DA;" d="M448.002,213.333v65.387c-22.835-41.227-74.767-56.136-115.994-33.301
	c-41.227,22.835-56.136,74.768-33.301,115.994c0.232,0.42,0.468,0.837,0.708,1.253h-182.08c0-29.455-23.878-53.333-53.333-53.333
	v-192c29.455,0,53.333-23.878,53.333-53.333h277.333c0,29.455,23.878,53.333,53.333,53.333V213.333z M362.669,160v-42.667H149.336
	V160H362.669z"/>
<path style="fill:#D9EEF7;" d="M426.669,386.56c20.268-16.139,32.053-40.652,32-66.56c0.053-14.448-3.621-28.666-10.667-41.28
	V117.333c-29.455,0-53.333-23.878-53.333-53.333H117.336c0,29.455-23.878,53.333-53.333,53.333v192
	c29.455,0,53.333,23.878,53.333,53.333h182.08c5.288,9.196,12.274,17.304,20.587,23.893V416h-288
	c-11.767-0.035-21.298-9.566-21.333-21.333V32c0.035-11.767,9.566-21.298,21.333-21.333h448C491.77,10.702,501.3,20.233,501.336,32
	v362.667c-0.035,11.767-9.566,21.298-21.333,21.333h-53.333V386.56z"/>
<g>
	<path style="fill:#4C5B66;" d="M480.002,0h-448c-17.673,0-32,14.327-32,32v362.667c0,17.673,14.327,32,32,32h256v-21.333h-256
		c-5.891,0-10.667-4.776-10.667-10.667V32c0-5.891,4.776-10.667,10.667-10.667h448c5.891,0,10.667,4.776,10.667,10.667v362.667
		c0,5.891-4.776,10.667-10.667,10.667h-21.333v21.333h21.333c17.673,0,32-14.327,32-32V32C512.002,14.327,497.675,0,480.002,0z"/>
	<path style="fill:#4C5B66;" d="M106.669,362.667c0,5.891,4.776,10.667,10.667,10.667h138.667V352H127.117
		c-4.588-26.838-25.61-47.86-52.448-52.448V127.115c26.838-4.588,47.86-25.61,52.448-52.448h257.771
		c4.588,26.838,25.61,47.86,52.448,52.448v86.219h21.333v-96c0-5.891-4.776-10.667-10.667-10.667
		c-23.564,0-42.667-19.103-42.667-42.667c0-5.891-4.776-10.667-10.667-10.667H117.336c-5.891,0-10.667,4.776-10.667,10.667
		c0,23.564-19.103,42.667-42.667,42.667c-5.891,0-10.667,4.776-10.667,10.667v192c0,5.891,4.776,10.667,10.667,10.667
		C87.566,320,106.669,339.103,106.669,362.667z"/>
	<path style="fill:#4C5B66;" d="M469.336,320c0-53.019-42.981-96-96-96c-53.019-0.034-96.028,42.919-96.062,95.938
		c-0.011,16.872,4.425,33.45,12.862,48.062c5.089,8.809,11.573,16.734,19.2,23.467v109.867c-0.002,5.891,4.772,10.668,10.663,10.671
		c2.425,0.001,4.778-0.824,6.671-2.34l46.667-37.333l46.667,37.333c4.599,3.682,11.311,2.939,14.993-1.66
		c1.516-1.893,2.341-4.246,2.34-6.671V391.307C457.721,373.216,469.371,347.254,469.336,320L469.336,320z M298.669,320
		c0.017-41.237,33.46-74.653,74.697-74.636c27.152,0.011,52.158,14.761,65.303,38.519v0.064c19.852,36.144,6.644,81.538-29.5,101.39
		c-26.438,14.521-59.016,11.708-82.574-7.129c-7.258-5.752-13.352-12.837-17.952-20.875
		C302.082,345.987,298.642,333.106,298.669,320z M380.002,450.336c-3.897-3.12-9.436-3.12-13.333,0l-36,28.8v-73.28
		c26.838,13.518,58.495,13.518,85.333,0v73.269L380.002,450.336z"/>
	<path style="fill:#4C5B66;" d="M373.336,160v-42.667c0-5.891-4.776-10.667-10.667-10.667H149.336
		c-5.891,0-10.667,4.776-10.667,10.667V160c0,5.891,4.776,10.667,10.667,10.667h213.333C368.56,170.667,373.336,165.891,373.336,160
		z M352.002,149.333h-192V128h192V149.333z"/>
	<path style="fill:#4C5B66;" d="M128.002,202.667h21.333V224h-21.333V202.667z"/>
	<path style="fill:#4C5B66;" d="M170.669,202.667h21.333V224h-21.333V202.667z"/>
	<path style="fill:#4C5B66;" d="M128.002,245.333h128v21.333h-128V245.333z"/>
	<path style="fill:#4C5B66;" d="M373.336,373.333c29.455,0,53.333-23.878,53.333-53.333c0-29.455-23.878-53.333-53.333-53.333
		S320.002,290.545,320.002,320C320.037,349.441,343.895,373.298,373.336,373.333z M373.336,288c17.673,0,32,14.327,32,32
		c0,17.673-14.327,32-32,32s-32-14.327-32-32C341.336,302.327,355.662,288,373.336,288z"/>
	<path style="fill:#4C5B66;" d="M53.336,352h21.333v21.333H53.336V352z"/>
	<path style="fill:#4C5B66;" d="M437.336,53.333h21.333v21.333h-21.333V53.333z"/>
	<path style="fill:#4C5B66;" d="M53.336,53.333h21.333v21.333H53.336V53.333z"/>
</g>
<g>
</g>
<g>
</g>
<g>
</g>
<g>
</g>
<g>
</g>
<g>
</g>
<g>
</g>
<g>
</g>
<g>
</g>
<g>
</g>
<g>
</g>
<g>
</g>
<g>
</g>
<g>
</g>
<g>
</g>
</svg>
