<?xml version="1.0" encoding="iso-8859-1"?>
<!-- Generator: Adobe Illustrator 19.0.0, SVG Export Plug-In . SVG Version: 6.00 Build 0)  -->
<svg version="1.1" id="Layer_1" xmlns="http://www.w3.org/2000/svg" xmlns:xlink="http://www.w3.org/1999/xlink" x="0px" y="0px"
	 viewBox="0 0 511.999 511.999" style="enable-background:new 0 0 511.999 511.999;" xml:space="preserve">
<rect x="199.89" y="384.259" style="fill:#5B5D6E;" width="112.23" height="64.13"/>
<rect x="199.89" y="384.259" style="fill:#464655;" width="112.23" height="24.05"/>
<g>
	<path style="fill:#707487;" d="M352.194,480.451H159.806c-4.427,0-8.016-3.589-8.016-8.016v-16.032
		c0-4.427,3.589-8.016,8.016-8.016h192.387c4.427,0,8.016,3.589,8.016,8.016v16.032C360.21,476.862,356.621,480.451,352.194,480.451
		z"/>
	<path style="fill:#707487;" d="M488.468,384.257H23.532c-8.854,0-16.032-7.178-16.032-16.032V47.58
		c0-8.854,7.178-16.032,16.032-16.032h464.935c8.854,0,16.032,7.178,16.032,16.032v320.645
		C504.5,377.079,497.322,384.257,488.468,384.257z"/>
</g>
<rect x="39.565" y="63.609" style="fill:#FFFFFF;" width="432.87" height="288.58"/>
<rect x="167.82" y="95.679" style="fill:#E4EAF8;" width="304.61" height="32.06"/>
<polygon style="fill:#C7CFE2;" points="472.435,63.612 39.565,63.612 39.565,352.193 167.823,352.193 167.823,95.676 
	472.435,95.676 "/>
<rect x="39.565" y="63.609" style="fill:#00C3FF;" width="128.26" height="32.06"/>
<path d="M488.468,24.048H23.532C10.557,24.048,0,34.604,0,47.58v320.645c0,12.976,10.557,23.532,23.532,23.532h168.855v49.129
	h-32.581c-8.556,0-15.516,6.961-15.516,15.517v16.032c0,8.556,6.96,15.516,15.516,15.516h192.387c8.556,0,15.516-6.96,15.516-15.516
	v-16.032c0-8.556-6.96-15.517-15.516-15.517h-32.581v-49.129h168.855c12.976,0,23.532-10.557,23.532-23.532V47.58
	C512,34.604,501.443,24.048,488.468,24.048z M304.613,440.886h-8.534c-4.142,0-7.5,3.357-7.5,7.5s3.358,7.5,7.5,7.5h56.115
	c0.285,0,0.516,0.231,0.516,0.517v16.032c0,0.284-0.231,0.516-0.516,0.516H159.807c-0.285,0-0.516-0.231-0.516-0.516v-16.032
	c0-0.285,0.231-0.517,0.516-0.517h104.209c4.142,0,7.5-3.357,7.5-7.5s-3.358-7.5-7.5-7.5h-56.629v-49.129h97.226L304.613,440.886
	L304.613,440.886z M497,368.225c0,4.705-3.828,8.532-8.532,8.532H23.532c-4.705,0-8.532-3.827-8.532-8.532V47.58
	c0-4.705,3.828-8.532,8.532-8.532h464.936c4.705,0,8.532,3.827,8.532,8.532L497,368.225L497,368.225z"/>
<path d="M472.436,56.112H39.564c-4.142,0-7.5,3.357-7.5,7.5v288.58c0,4.143,3.358,7.5,7.5,7.5h432.871c4.142,0,7.5-3.357,7.5-7.5
	V63.612C479.936,59.47,476.578,56.112,472.436,56.112z M464.936,88.177h-24.561c-4.142,0-7.5,3.357-7.5,7.5s3.358,7.5,7.5,7.5
	h24.561v17.064H375.73v-17.064h32.575c4.142,0,7.5-3.357,7.5-7.5s-3.358-7.5-7.5-7.5H175.323V71.112h289.613V88.177z
	 M279.532,120.241v-17.064h81.198v17.064C360.73,120.241,279.532,120.241,279.532,120.241z M175.323,120.241v-17.064h89.209v17.064
	C264.532,120.241,175.323,120.241,175.323,120.241z M160.323,71.112v17.064H47.064V71.112H160.323z M47.064,103.177h113.258v241.516
	H47.064V103.177z M175.323,344.692V135.241h289.613v209.451H175.323z"/>
<path d="M79.645,120.241h-8.016c-4.142,0-7.5,3.357-7.5,7.5c0,4.143,3.358,7.5,7.5,7.5h8.016c4.142,0,7.5-3.357,7.5-7.5
	C87.145,123.598,83.787,120.241,79.645,120.241z"/>
<path d="M111.709,135.241h24.049c4.142,0,7.5-3.357,7.5-7.5c0-4.143-3.358-7.5-7.5-7.5h-24.049c-4.142,0-7.5,3.357-7.5,7.5
	S107.567,135.241,111.709,135.241z"/>
<path d="M79.645,152.306h-8.016c-4.142,0-7.5,3.357-7.5,7.5s3.358,7.5,7.5,7.5h8.016c4.142,0,7.5-3.357,7.5-7.5
	S83.787,152.306,79.645,152.306z"/>
<path d="M135.758,152.306h-24.049c-4.142,0-7.5,3.357-7.5,7.5s3.358,7.5,7.5,7.5h24.049c4.142,0,7.5-3.357,7.5-7.5
	S139.9,152.306,135.758,152.306z"/>
<path d="M79.645,184.37h-8.016c-4.142,0-7.5,3.357-7.5,7.5s3.358,7.5,7.5,7.5h8.016c4.142,0,7.5-3.357,7.5-7.5
	S83.787,184.37,79.645,184.37z"/>
<path d="M135.758,184.37h-24.049c-4.142,0-7.5,3.357-7.5,7.5s3.358,7.5,7.5,7.5h24.049c4.142,0,7.5-3.357,7.5-7.5
	S139.9,184.37,135.758,184.37z"/>
<path d="M79.645,216.435h-8.016c-4.142,0-7.5,3.357-7.5,7.5s3.358,7.5,7.5,7.5h8.016c4.142,0,7.5-3.357,7.5-7.5
	S83.787,216.435,79.645,216.435z"/>
<path d="M135.758,216.435h-24.049c-4.142,0-7.5,3.357-7.5,7.5s3.358,7.5,7.5,7.5h24.049c4.142,0,7.5-3.357,7.5-7.5
	S139.9,216.435,135.758,216.435z"/>
<path d="M79.645,248.499h-8.016c-4.142,0-7.5,3.357-7.5,7.5s3.358,7.5,7.5,7.5h8.016c4.142,0,7.5-3.357,7.5-7.5
	S83.787,248.499,79.645,248.499z"/>
<path d="M135.758,248.499h-24.049c-4.142,0-7.5,3.357-7.5,7.5s3.358,7.5,7.5,7.5h24.049c4.142,0,7.5-3.357,7.5-7.5
	S139.9,248.499,135.758,248.499z"/>
<path d="M440.367,192.386h-7.21c-3.163,0-5.985,1.983-7.057,4.959l-21.802,60.559l-21.8-60.557c-1.071-2.976-3.894-4.96-7.057-4.96
	h-7.215c-4.142,0-7.5,3.357-7.5,7.5v80.161c0,4.143,3.358,7.5,7.5,7.5s7.5-3.357,7.5-7.5v-57.227l21.157,58.769
	c0.177,0.897,0.584,1.78,1.28,2.771c1.447,2.06,3.766,3.188,6.141,3.188c1.169,0,2.353-0.274,3.453-0.846
	c1.747-0.907,3.001-2.419,3.616-4.16c0.372-1.04,13.073-36.319,21.496-59.713v57.218c0,4.143,3.358,7.5,7.5,7.5s7.5-3.357,7.5-7.5
	v-80.162C447.867,195.743,444.509,192.386,440.367,192.386z"/>
<path d="M348.338,223.935c0-17.396-14.152-31.549-31.548-31.549h-32.064c-4.142,0-7.5,3.357-7.5,7.5v80.162
	c0,4.143,3.358,7.5,7.5,7.5s7.5-3.357,7.5-7.5v-24.565h19.929l13.96,27.92c1.314,2.628,3.962,4.147,6.714,4.147
	c1.127,0,2.271-0.256,3.348-0.794c3.705-1.853,5.207-6.357,3.354-10.063l-11.62-23.241
	C339.834,248.946,348.338,237.417,348.338,223.935z M316.79,240.482h-24.564v-33.097h24.564c9.125,0,16.548,7.424,16.548,16.549
	S325.915,240.482,316.79,240.482z"/>
<path d="M231.952,207.386c7.047,0,13.765,3.034,18.431,8.324c2.741,3.106,7.479,3.402,10.586,0.664
	c3.106-2.74,3.403-7.479,0.663-10.586c-7.513-8.518-18.331-13.402-29.68-13.402c-21.816,0-39.564,17.748-39.564,39.564v16.033
	c0,21.816,17.749,39.564,39.564,39.564c11.347,0,22.164-4.883,29.676-13.397c2.74-3.105,2.444-7.846-0.662-10.586
	s-7.846-2.443-10.586,0.662c-4.666,5.288-11.383,8.321-18.428,8.321c-13.545,0-24.564-11.02-24.564-24.564V231.95
	C207.387,218.405,218.407,207.386,231.952,207.386z"/>
<g>
</g>
<g>
</g>
<g>
</g>
<g>
</g>
<g>
</g>
<g>
</g>
<g>
</g>
<g>
</g>
<g>
</g>
<g>
</g>
<g>
</g>
<g>
</g>
<g>
</g>
<g>
</g>
<g>
</g>
</svg>
