<?xml version="1.0" encoding="iso-8859-1"?>
<!-- Generator: Adobe Illustrator 19.0.0, SVG Export Plug-In . SVG Version: 6.00 Build 0)  -->
<svg version="1.1" id="Capa_1" xmlns="http://www.w3.org/2000/svg" xmlns:xlink="http://www.w3.org/1999/xlink" x="0px" y="0px"
	 viewBox="0 0 384 384" style="enable-background:new 0 0 384 384;" xml:space="preserve">
<path style="fill:#303C42;" d="M373.333,53.333h-42.667V10.667C330.667,4.771,325.896,0,320,0h-42.667
	c-5.896,0-10.667,4.771-10.667,10.667v42.667H224c-5.896,0-10.667,4.771-10.667,10.667v42.667c0,5.896,4.771,10.667,10.667,10.667
	h42.667V160c0,5.896,4.771,10.667,10.667,10.667H320c5.896,0,10.667-4.771,10.667-10.667v-42.667h42.667
	c5.896,0,10.667-4.771,10.667-10.667V64C384,58.104,379.229,53.333,373.333,53.333z"/>
<path style="fill:#D32F2F;" d="M362.667,96H320c-5.896,0-10.667,4.771-10.667,10.667v42.667H288v-42.667
	C288,100.771,283.229,96,277.333,96h-42.667V74.667h42.667C283.229,74.667,288,69.896,288,64V21.333h21.333V64
	c0,5.896,4.771,10.667,10.667,10.667h42.667V96z"/>
<path style="fill:#303C42;" d="M353.188,252.052c-23.51,0-46.594-3.677-68.469-10.906c-10.906-3.719-23.323-0.833-30.438,6.417
	l-43.177,32.594c-50.073-26.729-80.917-57.563-107.281-107.26l31.635-42.052c8.219-8.208,11.167-20.198,7.635-31.448
	c-7.26-21.99-10.948-45.063-10.948-68.583C132.146,13.823,118.323,0,101.333,0H30.813C13.823,0,0,13.823,0,30.813
	C0,225.563,158.438,384,353.188,384c16.99,0,30.813-13.823,30.813-30.813v-70.323C384,265.875,370.177,252.052,353.188,252.052z"/>
<path style="fill:#4FC3F7;" d="M362.667,353.188c0,5.229-4.25,9.479-9.479,9.479c-182.99,0-331.854-148.865-331.854-331.854
	c0-5.229,4.25-9.479,9.479-9.479h70.521c5.229,0,9.479,4.25,9.479,9.479c0,25.802,4.052,51.125,11.979,75.115
	c1.104,3.542,0.208,7.208-3.375,10.938L82.75,165.427c-2.458,3.26-2.844,7.625-1,11.26c29.927,58.823,66.292,95.188,125.531,125.542
	c3.604,1.885,8.021,1.49,11.292-0.979l49.677-37.635c2.51-2.51,6.271-3.406,9.667-2.25c24.156,7.979,49.479,12.021,75.271,12.021
	c5.229,0,9.479,4.25,9.479,9.479V353.188z"/>
<path style="opacity:0.2;fill:#FFFFFF;enable-background:new    ;" d="M90.667,42.667c5.229,0,9.479,4.25,9.479,9.479
	c0,25.612,4.013,50.745,11.826,74.579l7.445-9.861c3.583-3.729,4.479-7.396,3.375-10.938c-7.927-23.99-11.979-49.313-11.979-75.115
	c0-5.229-4.25-9.479-9.479-9.479H30.813c-5.229,0-9.479,4.25-9.479,9.479c0,4.001,0.46,7.887,0.6,11.854H90.667z"/>
<path style="fill:#4FC3F7;" d="M353.188,273.385c-25.792,0-51.115-4.042-75.271-12.021c-3.396-1.156-7.156-0.26-9.667,2.25
	l-49.677,37.635c-3.271,2.469-7.688,2.865-11.292,0.979c-59.24-30.354-95.604-66.719-125.531-125.542
	c-0.348-0.685-0.229-1.451-0.419-2.174l-9.247,12.247c-2.458,3.26-2.844,7.625-1,11.26c9.077,17.84,18.878,33.415,29.596,47.583
	c27.049,31.75,59.875,58.391,96.964,78.161c3.4,1.349,7.284,1.066,10.263-1.182l49.677-37.635c2.51-2.51,6.271-3.406,9.667-2.25
	c24.156,7.979,49.479,12.021,75.271,12.021c5.229,0,9.479,4.25,9.479,9.479v58.409c0.401,0.001,0.786,0.06,1.188,0.06
	c5.229,0,9.479-4.25,9.479-9.479v-70.323C362.667,277.635,358.417,273.385,353.188,273.385z"/>
<path style="opacity:0.1;enable-background:new    ;" d="M353.188,273.385c-7.56,0-15.06-0.454-22.521-1.146v13.876
	c0,25.544-22.375,45.284-47.751,42.357c-68.333-7.882-130.208-36.833-179.497-79.857c60.88,69.723,150.152,114.051,249.77,114.051
	c5.229,0,9.479-4.25,9.479-9.479v-70.323C362.667,277.635,358.417,273.385,353.188,273.385z"/>
<linearGradient id="SVGID_1_" gradientUnits="userSpaceOnUse" x1="-108.2192" y1="577.2533" x2="-87.4011" y2="567.5452" gradientTransform="matrix(21.3333 0 0 -21.3333 2297.6667 12362.334)">
	<stop  offset="0" style="stop-color:#FFFFFF;stop-opacity:0.2"/>
	<stop  offset="1" style="stop-color:#FFFFFF;stop-opacity:0"/>
</linearGradient>
<path style="fill:url(#SVGID_1_);" d="M373.333,53.333h-42.667V10.667C330.667,4.771,325.896,0,320,0h-42.667
	c-5.896,0-10.667,4.771-10.667,10.667v42.667H224c-5.896,0-10.667,4.771-10.667,10.667v42.667c0,5.896,4.771,10.667,10.667,10.667
	h42.667V160c0,5.896,4.771,10.667,10.667,10.667H320c5.896,0,10.667-4.771,10.667-10.667v-42.667h42.667
	c5.896,0,10.667-4.771,10.667-10.667V64C384,58.104,379.229,53.333,373.333,53.333z M353.188,252.052
	c-23.51,0-46.594-3.677-68.469-10.906c-10.906-3.719-23.323-0.833-30.438,6.417l-43.177,32.594
	c-50.073-26.729-80.917-57.563-107.281-107.26l31.635-42.052c8.219-8.208,11.167-20.198,7.635-31.448
	c-7.26-21.99-10.948-45.063-10.948-68.583C132.146,13.823,118.323,0,101.333,0H30.813C13.823,0,0,13.823,0,30.813
	C0,225.563,158.438,384,353.188,384c16.99,0,30.813-13.823,30.813-30.813v-70.323C384,265.875,370.177,252.052,353.188,252.052z"/>
<g>
</g>
<g>
</g>
<g>
</g>
<g>
</g>
<g>
</g>
<g>
</g>
<g>
</g>
<g>
</g>
<g>
</g>
<g>
</g>
<g>
</g>
<g>
</g>
<g>
</g>
<g>
</g>
<g>
</g>
</svg>
