<?xml version="1.0" encoding="iso-8859-1"?>
<!-- Generator: Adobe Illustrator 19.0.0, SVG Export Plug-In . SVG Version: 6.00 Build 0)  -->
<svg version="1.1" id="Capa_1" xmlns="http://www.w3.org/2000/svg" xmlns:xlink="http://www.w3.org/1999/xlink" x="0px" y="0px"
	 viewBox="0 0 512 512" style="enable-background:new 0 0 512 512;" xml:space="preserve">
<g>
	<path style="fill:#7AEAE7;" d="M176.002,282c0-44.182,35.814-79.998,79.998-79.998s80,35.816,80,79.998
		c0,44.185-35.816,80.002-80,80.002S176.002,326.185,176.002,282L176.002,282z M436.002,502c11,0,19.998-8.998,19.998-19.998V102
		h-71.998c-11.001,0-20-8.998-20-20V49.998L364,10H76c-11.001,0-20,8.998-20,19.998v452.004c0,11,8.999,19.998,20,19.998
		L436.002,502L436.002,502z"/>
	<circle style="fill:#FF5A5A;" cx="256" cy="282" r="80"/>
	<path style="fill:#0586AD;" d="M364.002,82c0,11.002,8.999,20,20,20H456l-91.998-91.998v39.996V82z"/>
</g>
<path d="M465.984,101.664c-0.004-0.113-0.01-0.227-0.018-0.34c-0.028-0.424-0.074-0.844-0.156-1.256
	c-0.002-0.008-0.002-0.016-0.004-0.023c-0.084-0.422-0.204-0.834-0.341-1.24c-0.036-0.105-0.073-0.209-0.112-0.315
	c-0.143-0.381-0.303-0.756-0.492-1.117c-0.012-0.023-0.021-0.049-0.035-0.074c-0.202-0.379-0.438-0.742-0.689-1.094
	c-0.065-0.092-0.132-0.182-0.2-0.27c-0.268-0.352-0.551-0.691-0.865-1.008L371.074,2.93l-0.002-0.002
	c-0.318-0.316-0.66-0.602-1.013-0.869c-0.084-0.064-0.168-0.127-0.254-0.189c-0.358-0.256-0.728-0.494-1.114-0.699
	c-0.004-0.002-0.008-0.004-0.012-0.006c-0.385-0.205-0.787-0.375-1.195-0.525c-0.086-0.033-0.172-0.065-0.26-0.094
	c-0.831-0.283-1.699-0.457-2.586-0.514c-0.087-0.006-0.174-0.01-0.26-0.014C364.252,0.014,364.127,0,364,0H76
	C59.458,0,46,13.457,46,29.998v452.004C46,498.543,59.458,512,76,512h360.002C452.543,512,466,498.543,466,482.002V102
	C466,101.887,465.988,101.777,465.984,101.664z M374.002,34.145l28.928,28.928L431.857,92h-47.855c-5.514,0-10-4.486-10-10
	L374.002,34.145L374.002,34.145z M436.002,492H76c-5.514,0-10-4.486-10-9.998V29.998C66,24.484,70.486,20,76,20h278.002v19.998
	h-41.035c-5.523,0-10,4.477-10,10c0,5.521,4.477,10,10,10h41.035V82c0,16.543,13.458,30,30,30H446v370.002
	C446,487.514,441.516,492,436.002,492z"/>
<path d="M369.998,272h-24.553c-4.627-41.652-37.791-74.816-79.445-79.441v-24.555c0-5.523-4.477-10-10-10c-5.523,0-10,4.477-10,10
	v24.555c-41.652,4.627-74.815,37.789-79.44,79.441h-24.556c-5.523,0-10,4.478-10,10c0,5.523,4.477,10,10,10h24.556
	c4.625,41.652,37.787,74.816,79.44,79.443v24.553c0,5.522,4.477,10,10,10c5.523,0,10-4.478,10-10v-24.553
	c41.654-4.625,74.818-37.789,79.445-79.443h24.553c5.524,0,10-4.477,10-10C379.998,276.478,375.522,272,369.998,272z M325.277,272
	h-15.055c-4.123-22.4-21.82-40.096-44.223-44.219v-15.057C296.61,217.123,320.879,241.391,325.277,272z M256.002,317.147
	c-19.379,0-35.145-15.768-35.145-35.147c0-19.377,15.766-35.143,35.145-35.143c19.38,0,35.146,15.766,35.146,35.143
	C291.148,301.379,275.382,317.147,256.002,317.147z M246,212.725v15.059c-22.4,4.123-40.096,21.816-44.217,44.217h-15.057
	C191.126,241.393,215.393,217.125,246,212.725z M186.727,292h15.056c4.122,22.402,21.817,40.098,44.218,44.221v15.055
	C215.393,346.875,191.126,322.609,186.727,292z M266,351.275V336.22c22.403-4.121,40.1-21.818,44.223-44.221h15.055
	C320.879,322.609,296.61,346.879,266,351.275z"/>
<path d="M284,59.998h0.235c5.522,0,10-4.479,10-10c0-5.523-4.478-10-10-10H284c-5.523,0-10,4.477-10,10
	C274,55.52,278.477,59.998,284,59.998z"/>
<path d="M147.034,452.002H95.998c-5.522,0-10,4.476-10,10c0,5.521,4.478,10,10,10h51.036c5.522,0,10-4.479,10-10
	C157.034,456.478,152.557,452.002,147.034,452.002z"/>
<path d="M176.002,452.002h-0.236c-5.523,0-10,4.476-10,10c0,5.521,4.477,10,10,10h0.236c5.522,0,10-4.479,10-10
	C186.002,456.478,181.524,452.002,176.002,452.002z"/>
<g>
</g>
<g>
</g>
<g>
</g>
<g>
</g>
<g>
</g>
<g>
</g>
<g>
</g>
<g>
</g>
<g>
</g>
<g>
</g>
<g>
</g>
<g>
</g>
<g>
</g>
<g>
</g>
<g>
</g>
</svg>
