<?xml version="1.0" encoding="iso-8859-1"?>
<!-- Generator: Adobe Illustrator 19.0.0, SVG Export Plug-In . SVG Version: 6.00 Build 0)  -->
<svg version="1.1" id="Capa_1" xmlns="http://www.w3.org/2000/svg" xmlns:xlink="http://www.w3.org/1999/xlink" x="0px" y="0px"
	 viewBox="0 0 512 512" style="enable-background:new 0 0 512 512;" xml:space="preserve">
<path style="fill:#33384A;" d="M511.985,258.811c-0.275,25.568-4.294,50.232-11.542,73.477C467.978,436.412,370.813,512,256,512
	c-114.834,0-211.999-75.598-244.454-179.754C4.044,308.161,0,282.551,0,256C0,114.615,114.615,0,256,0
	C397.256,0,513.504,117.564,511.985,258.811z"/>
<path style="fill:#CBCBD3;" d="M397.471,92.096H109.494c-16.897,0-30.595,13.698-30.595,30.595v104.84
	c0,16.897,13.698,30.595,30.595,30.595h287.977c16.897,0,30.595-13.698,30.595-30.595v-104.84
	C428.065,105.794,414.368,92.096,397.471,92.096z"/>
<path style="fill:#D5D4E2;" d="M420.884,135.878H86.082c-19.644,0-35.569,15.925-35.569,35.569v121.886
	c0,19.644,15.925,35.569,35.569,35.569h334.802c19.644,0,35.569-15.925,35.569-35.569V171.447
	C456.453,151.803,440.528,135.878,420.884,135.878z"/>
<path style="fill:#F2F2F2;" d="M481.301,219.69v136.808c0,19.331-13.74,35.453-31.995,39.121c-2.56,0.522-5.214,0.794-7.931,0.794
	H65.588c-0.763,0-1.515-0.021-2.267-0.063c-20.992-1.17-37.658-18.568-37.658-39.852V219.69c0-22.058,17.878-39.926,39.926-39.926
	h375.787C463.423,179.764,481.301,197.632,481.301,219.69z"/>
<path style="fill:#D5D4E2;" d="M481.301,231.476v117.969c-8.976,16.572-19.717,32.057-31.995,46.174
	c-2.56,0.522-5.214,0.794-7.931,0.794H65.588c-0.763,0-1.515-0.021-2.267-0.063c-14.932-17.053-27.638-36.112-37.658-56.717V232.166
	c1.62-0.449,3.323-0.69,5.078-0.69h119.589c11.776,0,22.141,7.993,24.889,19.446c8.746,36.498,41.597,63.624,80.781,63.624
	c39.173,0,72.025-27.126,80.771-63.624c2.748-11.452,13.113-19.446,24.889-19.446H481.301z"/>
<path style="fill:#F4A22B;" d="M500.443,278.883v53.405c-5.308,17.011-12.34,33.259-20.898,48.546
	C435.754,459.097,352.057,512,256,512S76.236,459.097,32.444,380.834c-8.558-15.297-15.59-31.566-20.898-48.588v-53.363
	c0-10.595,8.6-19.195,19.195-19.195h119.589c11.776,0,22.141,7.993,24.889,19.446c8.746,36.498,41.597,63.624,80.781,63.624
	c39.173,0,72.025-27.126,80.771-63.624c2.748-11.452,13.113-19.446,24.889-19.446h119.589
	C491.844,259.689,500.443,268.288,500.443,278.883z"/>
<path style="fill:#FFCC4E;" d="M479.545,280.586v100.248C435.754,459.097,352.057,512,256,512S76.236,459.097,32.444,380.834
	V280.586h117.885c2.173,0,4.096,1.432,4.566,3.417c5.35,22.329,18.233,42.559,36.258,56.957
	c18.327,14.639,41.357,22.695,64.846,22.695s46.519-8.056,64.836-22.695c18.025-14.399,30.908-34.628,36.258-56.957
	c0.481-1.985,2.393-3.417,4.566-3.417H479.545z"/>
<g>
</g>
<g>
</g>
<g>
</g>
<g>
</g>
<g>
</g>
<g>
</g>
<g>
</g>
<g>
</g>
<g>
</g>
<g>
</g>
<g>
</g>
<g>
</g>
<g>
</g>
<g>
</g>
<g>
</g>
</svg>
