<?xml version="1.0" encoding="iso-8859-1"?>
<!-- Generator: Adobe Illustrator 19.0.0, SVG Export Plug-In . SVG Version: 6.00 Build 0)  -->
<svg version="1.1" id="Capa_1" xmlns="http://www.w3.org/2000/svg" xmlns:xlink="http://www.w3.org/1999/xlink" x="0px" y="0px"
	 viewBox="0 0 512 512" style="enable-background:new 0 0 512 512;" xml:space="preserve">
<rect x="103.008" y="292.023" style="fill:#F7CF9C;" width="306.025" height="195.906"/>
<rect x="103.008" y="292.023" style="fill:#EAB883;" width="28.391" height="195.906"/>
<path style="fill:#9E7430;" d="M208.075,403.641h-3.248v30.821v22.652v30.821c28.288,0,68.611,0,96.845,0
	c0-18.718,0-65.759,0-84.295C289.332,403.641,217.952,403.641,208.075,403.641z"/>
<path style="fill:#8E6325;" d="M253.248,403.641h-45.175h-3.248v30.821v22.653v30.821c14.003,0,34.472,0,48.423,0V403.641z"/>
<path style="fill:#7F551D;" d="M231.286,403.641h-24.686h-1.775v30.821v22.653v30.821c8.851,0,17.648,0,26.461,0V403.641z"/>
<rect x="103.008" y="278.522" style="fill:#EAB883;" width="306.025" height="40.505"/>
<rect x="103.008" y="278.522" style="fill:#DDA878;" width="28.391" height="40.505"/>
<polygon style="fill:#E6E6E6;" points="183.514,278.526 183.514,459.216 183.514,463.994 210.824,463.994 210.824,459.216 
	210.824,278.526 "/>
<polygon style="fill:#CCCCCC;" points="183.514,278.526 183.514,459.216 183.514,463.994 197.169,463.994 197.169,459.216 
	197.169,278.526 "/>
<path style="fill:#E6E6E6;" d="M295.674,278.526c0,9.393,0,174.815,0,185.468h27.31c0-10.655,0-176.076,0-185.468H295.674z"/>
<g>
	<path style="fill:#CCCCCC;" d="M295.674,278.526c0,9.393,0,174.815,0,185.468h13.655c0-10.655,0-176.076,0-185.468H295.674z"/>
	<path style="fill:#CCCCCC;" d="M325.829,477.495h-33.001c-7.426,0-13.502-6.076-13.502-13.502l0,0
		c0-7.427,6.076-13.502,13.502-13.502h33.001c7.426,0,13.502,6.076,13.502,13.502l0,0
		C339.331,471.42,333.256,477.495,325.829,477.495z"/>
	<path style="fill:#CCCCCC;" d="M213.669,477.495h-33.001c-7.427,0-13.502-6.076-13.502-13.502l0,0
		c0-7.427,6.075-13.502,13.502-13.502h33.001c7.427,0,13.502,6.076,13.502,13.502l0,0
		C227.171,471.42,221.096,477.495,213.669,477.495z"/>
</g>
<g>
	<path style="fill:#B7B7B7;" d="M190.341,463.994c0-7.427,6.075-13.502,13.502-13.502h-23.175c-7.427,0-13.502,6.076-13.502,13.502
		c0,7.426,6.075,13.502,13.502,13.502h23.175C196.417,477.495,190.341,471.42,190.341,463.994z"/>
	<path style="fill:#B7B7B7;" d="M302.501,463.994c0-7.427,6.076-13.502,13.502-13.502h-23.175c-7.426,0-13.502,6.076-13.502,13.502
		c0,7.426,6.076,13.502,13.502,13.502h23.175C308.578,477.495,302.501,471.42,302.501,463.994z"/>
</g>
<path style="fill:#ED5A5A;" d="M347.487,28.76c-11.005,0-76.903,0-87.897,0v61.012c25.853,0,61.416,0,87.06,0
	c2.058,0,3.726-1.668,3.726-3.726V31.651C350.376,30.054,349.082,28.76,347.487,28.76z"/>
<path style="fill:#E04B4B;" d="M259.59,28.76v61.012c8.696,0,28.192,0,36.935,0V28.76C287.78,28.76,268.284,28.76,259.59,28.76z"/>
<path style="fill:#E6E6E6;" d="M253.716,7.702c-6.391,1.101-11.198,6.661-11.198,13.291c0,31.553,0,110.365,0,140.744h27.003
	c0-6.68,0-129.861,0-140.744C269.523,12.619,261.961,6.248,253.716,7.702z"/>
<path style="fill:#CCCCCC;" d="M256.02,20.993c0-4.997,2.723-9.345,6.76-11.675c-8.989-5.216-20.262,1.326-20.262,11.675
	c0,31.553,0,110.365,0,140.744h13.502C256.02,145.873,256.02,38.766,256.02,20.993z"/>
<path id="SVGCleanerId_0" style="fill:#9E7430;" d="M426.447,247.295L300.014,156.04c-4.16-3.002-9.16-4.618-14.29-4.618h-61.921
	c-4.577,0-9.038,1.442-12.749,4.12L87.099,245.008c-4.832,3.487-3.009,8.941-3.398,12.229c0,3.97,0,7.298,0,11.221l0,0l-0.06,13.475
	c0.255,5.697,4.938,10.096,10.553,10.096c14.239,0,315.445,0,323.635,0c4.744,0,8.758-3.124,10.096-7.428
	c0.756-2.428,0.374-3.953,0.475-8.625c0-0.33,0-8.048,0-7.579c0-0.179,0-5.632,0-5.524v-6.324
	C428.021,252.438,429.255,249.323,426.447,247.295z"/>
<g>
	<path id="SVGCleanerId_0_1_" style="fill:#9E7430;" d="M426.447,247.295L300.014,156.04c-4.16-3.002-9.16-4.618-14.29-4.618
		h-61.921c-4.577,0-9.038,1.442-12.749,4.12L87.099,245.008c-4.832,3.487-3.009,8.941-3.398,12.229c0,3.97,0,7.298,0,11.221l0,0
		l-0.06,13.475c0.255,5.697,4.938,10.096,10.553,10.096c14.239,0,315.445,0,323.635,0c4.744,0,8.758-3.124,10.096-7.428
		c0.756-2.428,0.374-3.953,0.475-8.625c0-0.33,0-8.048,0-7.579c0-0.179,0-5.632,0-5.524v-6.324
		C428.021,252.438,429.255,249.323,426.447,247.295z"/>
</g>
<path style="fill:#8E6325;" d="M110.848,278.796L110.848,278.796c-0.001-6.847-0.001-12.959-0.001-19.805
	c0-3.101,1.49-6.014,4.005-7.83l138.19-99.741c-25.114,0.946-32.82-2.498-41.989,4.12L87.099,245.008
	c-4.832,3.487-3.009,8.941-3.398,12.229c0,3.958,0,7.3,0,11.221l0,0l-0.06,13.475c0.255,5.697,4.938,10.096,10.553,10.096h16.595
	L110.848,278.796z"/>
<path style="fill:#7F551D;" d="M427.925,284.6c0.828-2.661,0.334-3.798,0.475-19.577c-12.67,0-325.817,0-344.701,0v3.433l0,0
	l-0.06,13.475c0.255,5.697,4.938,10.096,10.553,10.096c13.037,0,312.314,0,323.635,0C422.573,292.027,426.586,288.903,427.925,284.6
	z"/>
<path style="fill:#724817;" d="M110.643,281.933l0.06-13.475h-0.001v-3.433c-7.956,0-15.025,0-27.002,0v3.433l0,0l-0.06,13.475
	c0.255,5.697,4.938,10.096,10.553,10.096c6.897,0,14.89,0,27.002,0C115.583,292.027,110.898,287.631,110.643,281.933z"/>
<path style="fill:#8E6325;" d="M466.259,488.693c-1.1-6.386-6.657-11.198-13.291-11.198c-82.693,0-310.604,0-393.896,0
	c-7.485,0-13.502,6.111-13.502,13.502c0,7.458,6.044,13.502,13.502,13.502c95.523,0,298.185,0,393.896,0
	C461.278,504.5,467.727,497.003,466.259,488.693z"/>
<path style="fill:#7F551D;" d="M116.005,487.537c1.531-5.777,6.78-10.041,13.037-10.041c-21.726,0-47.73,0-69.97,0
	c-7.56,0-13.502,6.192-13.502,13.502c0,7.457,6.044,13.502,13.502,13.502c14.401,0,53.968,0,69.97,0
	C120.173,504.5,113.694,496.053,116.005,487.537z"/>
<path d="M359.403,355.22c0-4.143-3.357-7.501-7.501-7.501c-4.142,0-7.501,3.357-7.501,7.501v17.663c0,4.143,3.358,7.501,7.501,7.501
	c4.143,0,7.501-3.357,7.501-7.501V355.22z"/>
<path d="M388.126,355.22c0-4.143-3.357-7.501-7.501-7.501c-4.142,0-7.501,3.357-7.501,7.501v17.663c0,4.143,3.358,7.501,7.501,7.501
	c4.143,0,7.501-3.357,7.501-7.501V355.22z"/>
<path d="M351.902,397.141c-4.142,0-7.501,3.357-7.501,7.501v17.664c0,4.143,3.358,7.501,7.501,7.501
	c4.143,0,7.501-3.357,7.501-7.501v-17.664C359.403,400.498,356.046,397.141,351.902,397.141z"/>
<path d="M380.625,397.141c-4.142,0-7.501,3.357-7.501,7.501v17.664c0,4.143,3.358,7.501,7.501,7.501
	c4.143,0,7.501-3.357,7.501-7.501v-17.664C388.126,400.498,384.769,397.141,380.625,397.141z"/>
<path d="M131.384,347.719c-4.143,0-7.501,3.357-7.501,7.501v17.663c0,4.143,3.357,7.501,7.501,7.501
	c4.143,0,7.501-3.357,7.501-7.501V355.22C138.885,351.076,135.528,347.719,131.384,347.719z"/>
<path d="M160.108,380.384c4.143,0,7.501-3.357,7.501-7.501V355.22c0-4.143-3.357-7.501-7.501-7.501
	c-4.143,0-7.501,3.357-7.501,7.501v17.663C152.607,377.025,155.965,380.384,160.108,380.384z"/>
<path d="M131.384,397.141c-4.143,0-7.501,3.357-7.501,7.501v17.664c0,4.143,3.357,7.501,7.501,7.501
	c4.143,0,7.501-3.357,7.501-7.501v-17.664C138.885,400.498,135.528,397.141,131.384,397.141z"/>
<path d="M167.608,404.642c0-4.143-3.357-7.501-7.501-7.501c-4.143,0-7.501,3.357-7.501,7.501v17.664
	c0,4.143,3.357,7.501,7.501,7.501c4.143,0,7.501-3.357,7.501-7.501V404.642z"/>
<path d="M238.351,347.719c-4.143,0-7.501,3.357-7.501,7.501v17.663c0,4.143,3.357,7.501,7.501,7.501s7.501-3.357,7.501-7.501V355.22
	C245.852,351.076,242.494,347.719,238.351,347.719z"/>
<path d="M267.074,380.384c4.143,0,7.501-3.357,7.501-7.501V355.22c0-4.143-3.357-7.501-7.501-7.501s-7.501,3.357-7.501,7.501v17.663
	C259.574,377.025,262.932,380.384,267.074,380.384z"/>
<path d="M452.952,469.995h-36.435v-39.02c0-4.142-3.357-7.501-7.501-7.501c-4.143,0-7.501,3.358-7.501,7.501v39.021h-55.585
	c0.569-1.903,0.885-3.915,0.885-6.001c0-9.979-7.003-18.337-16.347-20.464V326.532h71.048v69.44c0,4.143,3.357,7.501,7.501,7.501
	c4.143,0,7.501-3.357,7.501-7.501v-76.94v-19.504c0.101,0,1.397,0,1.296,0c10.039,0,18.071-8.102,18.071-18.07
	c0-23.176,0.028-26.856-0.078-30.565c-0.023-3.823-1.883-7.438-4.986-9.679l-126.433-91.255c-11.309-8.162-21.866-5.512-27.38-6.037
	V97.273h69.627c6.189,0,11.227-5.036,11.227-11.227V31.651c0-5.729-4.661-10.39-10.391-10.39h-70.463v-0.268
	c0-12.675-11.666-23.697-25.937-20.404c-9.882,2.514-16.068,11.086-16.068,20.404v20.773c0,4.143,3.357,7.501,7.501,7.501
	s7.501-3.357,7.501-7.501V20.993c0-3.106,2.428-5.855,5.86-5.987c3.518-0.071,6.143,2.748,6.143,5.987v7.769
	c0,11.582,0,102.015,0,115.159h-12.003V76.768c0-4.143-3.357-7.501-7.501-7.501s-7.501,3.357-7.501,7.501v67.152
	c-7.594,0.623-17.584-2.237-28.354,5.539L82.696,238.925c-4.077,2.94-6.512,7.699-6.512,12.727
	c-0.032,31.427-0.413,31.495,0.736,35.175c4.3,13.831,18.461,12.666,18.571,12.701c0,33.667,0,130.158,0,170.467H59.058
	c-11.845,0-21.052,9.921-20.988,20.491C37.5,501.508,46.812,512,59.058,512h393.895c11.581,0,21.003-9.422,21.003-21.003
	C473.955,479.569,464.659,469.995,452.952,469.995z M277.008,36.262h65.852v46.01h-65.852L277.008,36.262L277.008,36.262z
	 M331.815,463.993c0,3.309-2.692,6.001-6.001,6.001h-33.001c-3.308,0-6.001-2.692-6.001-6c0-3.308,2.693-6.001,6.001-6.001
	c6.303,0,26.669,0,33.001,0C329.122,457.993,331.815,460.685,331.815,463.993z M272.683,469.995h-11.949v-58.854h27.424v32.37
	C276.354,446.193,269.219,458.402,272.683,469.995z M218.308,443.512v-32.37h27.424v58.854h-11.95
	C237.286,458.27,229.95,446.156,218.308,443.512z M160.535,469.995h-50.041V326.532h65.504V443.53
	C164.337,446.182,157.01,458.203,160.535,469.995z M110.494,311.531v-12.003h65.504v12.003H110.494z M180.652,457.993
	c0.103,0,33.095-0.022,33.614,0.031c2.817,0.287,5.07,2.537,5.357,5.357c0.363,3.535-2.424,6.614-5.97,6.614h-33.001
	c-3.309,0-6.001-2.692-6.001-6.001C174.651,460.685,177.343,457.993,180.652,457.993z M190.999,442.992
	c0-21.411,0-125.844,0-143.464h12.309c0,22.519,0,80.769,0,104.112v39.351H190.999z M218.308,396.141v-69.609h69.85v69.609
	C269.343,396.141,229.269,396.141,218.308,396.141z M218.308,311.531v-12.003h69.85v12.003H218.308z M303.159,442.992V403.64
	c0-23.43,0-81.681,0-104.112h12.309c0,17.595,0,122.1,0,143.464H303.159z M401.517,311.531h-71.048v-12.003h71.048V311.531z
	 M94.179,284.527c-1.563,0-2.6-1.082-2.936-2.162c-0.229-0.727-0.06-0.812-0.075-9.841h74.829c4.143,0,7.501-3.357,7.501-7.501
	c0-4.142-3.357-7.501-7.501-7.501H91.185c0.093-5.459-0.247-6.045,0.288-6.434c129.995-92.667,123.707-92.167,132.314-92.167
	c22.882,0,39.904,0,61.921,0c9.994,0,3.597,0.015,135.119,93.578c0.001,0.101,0.061,5.356,0.058,5.021H201
	c-4.143,0-7.501,3.358-7.501,7.501c0,4.143,3.357,7.501,7.501,7.501h219.885c-0.044,9.242,0.103,9.08-0.137,9.848
	c-0.375,1.204-1.495,2.155-2.935,2.155c-72.716,0-144.791,0-234.315,0C167.598,284.527,104.84,284.527,94.179,284.527z
	 M452.952,496.999H59.058c-3.835,0-6.726-3.586-5.838-7.342c0.067-0.1,1.061-4.661,5.838-4.661c105.241,0,328.913,0,393.895,0
	c2.999,0,5.775,2.158,5.999,6.158C458.869,494.392,456.21,496.999,452.952,496.999z"/>
<g>
</g>
<g>
</g>
<g>
</g>
<g>
</g>
<g>
</g>
<g>
</g>
<g>
</g>
<g>
</g>
<g>
</g>
<g>
</g>
<g>
</g>
<g>
</g>
<g>
</g>
<g>
</g>
<g>
</g>
</svg>
