<?xml version="1.0" encoding="iso-8859-1"?>
<!-- Generator: Adobe Illustrator 21.0.0, SVG Export Plug-In . SVG Version: 6.00 Build 0)  -->
<svg version="1.1" id="Capa_1" xmlns="http://www.w3.org/2000/svg" xmlns:xlink="http://www.w3.org/1999/xlink" x="0px" y="0px"
	 viewBox="0 0 512 512" style="enable-background:new 0 0 512 512;" xml:space="preserve">
<polygon style="fill:#A5CDFF;" points="392.274,328.145 119.726,328.145 119.726,151.79 256,39.564 392.274,151.79 "/>
<path style="fill:#8CB4EB;" d="M256,71.006l136.274,114.756V151.79L256,39.564L119.726,151.79v176.355h272.548v-24.048H191.871
	c-26.563,0-48.097-21.534-48.097-48.097v-83.031c0-4.729,2.088-9.217,5.705-12.263L256,71.006z"/>
<path style="fill:#6F6571;" d="M280.048,472.435h-48.097c-4.427,0-8.016-3.589-8.016-8.016v-16.032c0-4.427,3.589-8.016,8.016-8.016
	h48.097c4.427,0,8.016,3.589,8.016,8.016v16.032C288.065,468.846,284.476,472.435,280.048,472.435z"/>
<path style="fill:#FFE17D;" d="M256,360.21L256,360.21c-30.99,0-56.113-25.123-56.113-56.113v-32.065
	c0-8.854,7.178-16.032,16.032-16.032h80.161c8.854,0,16.032,7.178,16.032,16.032v32.065C312.113,335.087,286.99,360.21,256,360.21z"
	/>
<path style="fill:#FFD164;" d="M280.048,352.193c-30.99,0-56.113-25.123-56.113-56.113V256h-8.016
	c-8.854,0-16.032,7.178-16.032,16.032v32.065c0,30.99,25.123,56.113,56.113,56.113c10.721,0,20.704-3.061,29.224-8.277
	C283.517,352.088,281.796,352.193,280.048,352.193z"/>
<path d="M504.5,448.903H295.564v-0.516c0-8.556-6.96-15.516-15.516-15.516H263.5v-65.619c31.552-3.725,56.113-30.618,56.113-63.156
	v-32.064c0-10.353-6.724-19.16-16.032-22.3v-25.797c0-26.236-21.345-47.581-47.581-47.581s-47.581,21.345-47.581,47.581v25.797
	c-9.308,3.139-16.032,11.946-16.032,22.3v32.064c0,32.537,24.561,59.431,56.113,63.156v65.619h-16.548
	c-8.556,0-15.516,6.96-15.516,15.516v0.516H7.5c-4.142,0-7.5,3.358-7.5,7.5s3.358,7.5,7.5,7.5h208.936v0.516
	c0,8.556,6.96,15.516,15.516,15.516h48.097c8.556,0,15.516-6.96,15.516-15.516v-0.516H504.5c4.142,0,7.5-3.358,7.5-7.5
	S508.642,448.903,504.5,448.903z M256,191.355c17.965,0,32.581,14.616,32.581,32.581V248.5H223.42v-24.564
	C223.419,205.971,238.035,191.355,256,191.355z M207.387,304.097v-32.064c0-4.705,3.828-8.532,8.532-8.532h80.161
	c4.705,0,8.532,3.828,8.532,8.532v32.064c0,26.805-21.808,48.613-48.613,48.613S207.387,330.902,207.387,304.097z M280.564,464.419
	c0,0.285-0.231,0.516-0.516,0.516h-48.097c-0.285,0-0.516-0.231-0.516-0.516v-16.032c0-0.285,0.231-0.516,0.516-0.516h48.097
	c0.285,0,0.516,0.231,0.516,0.516V464.419z"/>
<path d="M103.693,320.645c-4.142,0-7.5,3.358-7.5,7.5s3.358,7.5,7.5,7.5h64.129c4.142,0,7.5-3.358,7.5-7.5s-3.358-7.5-7.5-7.5
	h-40.597V157.811L256,49.37l128.774,108.442v162.834h-40.598c-4.142,0-7.5,3.358-7.5,7.5s3.358,7.5,7.5,7.5h64.13
	c4.142,0,7.5-3.358,7.5-7.5s-3.358-7.5-7.5-7.5h-8.532V170.443l3.701,3.117c1.407,1.185,3.122,1.764,4.827,1.763
	c2.136,0,4.257-0.908,5.741-2.669c2.668-3.168,2.263-7.9-0.906-10.568L260.831,33.828c-2.792-2.351-6.87-2.351-9.662,0
	L98.862,162.086c-3.168,2.668-3.574,7.399-0.906,10.568c2.667,3.168,7.399,3.574,10.568,0.906l3.701-3.117v150.202H103.693z"/>
<path d="M263.5,312.113V296.08c0-4.142-3.358-7.5-7.5-7.5s-7.5,3.358-7.5,7.5v16.032c0,4.142,3.358,7.5,7.5,7.5
	S263.5,316.255,263.5,312.113z"/>
<g>
</g>
<g>
</g>
<g>
</g>
<g>
</g>
<g>
</g>
<g>
</g>
<g>
</g>
<g>
</g>
<g>
</g>
<g>
</g>
<g>
</g>
<g>
</g>
<g>
</g>
<g>
</g>
<g>
</g>
</svg>
