<svg height="511pt" viewBox="-28 1 511 511.9994" width="511pt" xmlns="http://www.w3.org/2000/svg"><path d="m362.546875 399.972656c25.089844-25 39.355469-58.851562 39.734375-94.269531 0-82.007813-78.207031-148.484375-174.6875-148.484375-22.753906-.042969-45.347656 3.777344-66.820312 11.300781-8.898438-17.636719-26.96875-28.765625-46.726563-28.769531v53.28125c-10.125 7.355469-19.367187 15.855469-27.539063 25.328125h-77.273437v83.371094c.023437 36.882812 27.269531 68.089843 63.8125 73.089843 6.699219 10.683594 14.710937 20.484376 23.84375 29.179688l-49.855469 49.855469h49.410156v49.410156l61.429688-61.429687c47.050781 17.269531 98.847656 16.40625 145.296875-2.417969l63.847656 63.847656v-49.410156h49.410157zm0 0" fill="#ee8eb4"/><path d="m367.34375 157.21875c.035156-33.765625-27.308594-61.167969-61.078125-61.207031-33.765625-.035157-61.167969 27.3125-61.203125 61.078125-.015625 13.839844 4.664062 27.273437 13.273438 38.105468 19.4375 3.796876 37.875 11.578126 54.15625 22.851563 31.167968-3.226563 54.855468-29.492187 54.851562-60.828125zm0 0" fill="#ffd884"/><path d="m445.953125 52.40625c0 24.117188-19.554687 43.671875-43.671875 43.671875-24.121094 0-43.671875-19.554687-43.671875-43.671875 0-24.121094 19.550781-43.671875 43.671875-43.671875 24.117188 0 43.671875 19.550781 43.671875 43.671875zm0 0" fill="#ffd884"/><path d="m411.015625 305.703125h-34.9375v-17.46875h34.9375c14.46875 0 26.203125-11.730469 26.203125-26.203125s-11.734375-26.203125-26.203125-26.203125v-17.46875c24.117187 0 43.671875 19.550781 43.671875 43.671875 0 24.117188-19.554688 43.671875-43.671875 43.671875zm0 0" fill="#dd527c"/><path d="m183.921875 253.296875h-17.46875c0-9.648437-7.820313-17.46875-17.46875-17.46875s-17.46875 7.820313-17.46875 17.46875h-17.46875c0-19.296875 15.640625-34.9375 34.9375-34.9375 19.292969 0 34.9375 15.640625 34.9375 34.9375zm0 0" fill="#dd527c"/><path d="m44.171875 253.296875c9.648437 0 17.46875 7.820313 17.46875 17.46875s-7.820313 17.46875-17.46875 17.46875zm0 0" fill="#dd527c"/><path d="m192.988281 160.152344c.777344-.128906 1.589844-.183594 2.375-.304688-.785156.132813-1.597656.175782-2.375.304688zm0 0" fill="#dd95c1"/><path d="m402.28125 305.703125c-.027344 4.777344-.320312 9.550781-.875 14.296875.554688-4.746094.847656-9.519531.875-14.296875zm0 0" fill="#dd95c1"/><path d="m209.984375 157.980469c5.789063-.507813 11.65625-.761719 17.609375-.761719-5.953125 0-11.820312.253906-17.609375.761719zm0 0" fill="#dd95c1"/><path d="m209.417969 453.382812c-1.25-.113281-2.457031-.347656-3.703125-.488281 1.246094.140625 2.453125.417969 3.703125.488281zm0 0" fill="#dd95c1"/><path d="m397.632812 339.261719c-.75 2.742187-1.546874 5.476562-2.472656 8.15625.925782-2.691407 1.722656-5.414063 2.472656-8.15625zm0 0" fill="#dd95c1"/><path d="m400.707031 324.628906c-.46875 3.128906-.976562 6.238282-1.667969 9.292969.691407-3.054687 1.199219-6.164063 1.667969-9.292969zm0 0" fill="#dd95c1"/><path d="m89.652344 411.242188-42.617188 42.613281h49.410156v49.410156l49.882813-49.882813zm0 0" fill="#9b1e5a"/><g fill="#dd95c1"><path d="m79.886719 384.730469c-1.128907-1.519531-2.226563-3.046875-3.285157-4.601563 1.058594 1.5625 2.15625 3.082032 3.285157 4.601563zm0 0"/><path d="m174.550781 447.199219c-.875-.234375-1.652343-.542969-2.5-.777344.847657.210937 1.652344.515625 2.5.777344zm0 0"/><path d="m98.847656 205.597656c.359375-.339844.707032-.671875 1.074219-1.003906-.367187.332031-.722656.664062-1.074219 1.003906zm0 0"/><path d="m243.472656 453.507812c-5.242187.398438-10.480468.679688-15.878906.679688 5.363281 0 10.648438-.269531 15.878906-.679688zm0 0"/><path d="m191.695312 451.015625c-1.09375-.191406-2.140624-.488281-3.230468-.707031 1.089844.21875 2.136718.515625 3.230468.707031zm0 0"/><path d="m286.828125 445.242188-1.953125.613281zm0 0"/><path d="m393.136719 352.867188c-1.015625 2.570312-2.105469 5.097656-3.269531 7.589843 1.171874-2.507812 2.261718-5.039062 3.269531-7.589843zm0 0"/><path d="m275.632812 448.359375c-3.269531.796875-6.570312 1.53125-9.914062 2.167969 3.359375-.644532 6.664062-1.367188 9.914062-2.167969zm0 0"/><path d="m380.164062 377.917969c-1.648437 2.515625-3.492187 4.945312-5.238281 7.363281 1.789063-2.417969 3.589844-4.847656 5.238281-7.363281zm0 0"/><path d="m371.839844 389.414062c-2.914063 3.625-5.988282 7.144532-9.265625 10.53125 3.273437-3.40625 6.351562-6.898437 9.265625-10.53125zm0 0"/><path d="m259.910156 451.566406c-4.367187.699219-8.796875 1.3125-13.285156 1.746094 4.445312-.460938 8.867188-1.054688 13.285156-1.746094zm0 0"/></g><path d="m317.941406 454.1875 49.078125 49.078125v-49.410156h49.410157l-44.589844-44.597657zm0 0" fill="#9b1e5a"/><path d="m387.292969 365.726562c-1.292969 2.472657-2.691407 4.882813-4.125 7.285157 1.433593-2.402344 2.832031-4.8125 4.125-7.285157zm0 0" fill="#dd95c1"/><path d="m326.457031 241.742188c-25.832031-26.785157-61.660156-41.585938-98.863281-40.851563v-17.46875c42.089844-.734375 82.585938 16.113281 111.730469 46.492187zm0 0" fill="#dd527c"/><path d="m349.875 52.40625c0 28.941406 23.460938 52.40625 52.40625 52.40625 28.941406 0 52.40625-23.464844 52.40625-52.40625s-23.464844-52.40625-52.40625-52.40625c-28.933594.0273438-52.378906 23.476562-52.40625 52.40625zm87.34375 0c0 19.296875-15.644531 34.9375-34.9375 34.9375-19.296875 0-34.9375-15.640625-34.9375-34.9375s15.640625-34.9375 34.9375-34.9375c19.292969 0 34.9375 15.640625 34.9375 34.9375zm0 0"/><path d="m67.753906 382.820312c4.984375 7.511719 10.601563 14.585938 16.789063 21.144532l-43.671875 43.714844c-3.410156 3.410156-3.410156 8.941406 0 12.351562 1.636718 1.636719 3.859375 2.558594 6.171875 2.558594h40.675781v40.675781c.003906 4.824219 3.914062 8.734375 8.738281 8.730469 2.316407 0 4.535157-.917969 6.171875-2.554688l57.527344-57.527344c45.847656 15.34375 95.5625 14.539063 140.890625-2.277343l59.804687 59.804687c1.640626 1.636719 3.859376 2.558594 6.175782 2.558594 1.148437 0 2.289062-.230469 3.347656-.671875 3.257812-1.351563 5.386719-4.535156 5.386719-8.0625v-40.675781h40.667969c4.824218-.003906 8.734374-3.914063 8.734374-8.738282-.003906-2.3125-.921874-4.535156-2.558593-6.171874l-47.960938-47.96875c23.113281-25.894532 36.035157-59.300782 36.371094-94.007813 24.117187 0 43.671875-19.554687 43.671875-43.671875 0-24.121094-19.554688-43.671875-43.671875-43.671875v17.46875c14.46875 0 26.203125 11.730469 26.203125 26.203125s-11.734375 26.203125-26.203125 26.203125h-1.1875c-4.828125-34.398437-21.707031-65.96875-47.628906-89.089844 23.109375-30.90625 16.792969-74.695312-14.109375-97.804687-30.90625-23.113282-74.695313-16.796875-97.808594 14.109375-7.277344 9.734375-11.894531 21.199219-13.386719 33.261719-24.417969-1.085938-48.84375 2.058593-72.1875 9.292968-11.308593-16.902344-30.324219-27.03125-50.660156-26.988281-4.824219 0-8.734375 3.910156-8.734375 8.734375v48.914062c-8.183594 6.292969-15.785156 13.308594-22.710938 20.960938h-73.367187c-4.824219 0-8.734375 3.910156-8.734375 8.734375v83.371094c.128906 39.636719 28.320312 73.632812 67.253906 81.089843zm238.449219-278.007812c28.890625-.050781 52.351563 23.328125 52.402344 52.21875.046875 25.824219-18.761719 47.816406-44.28125 51.78125-15.457031-10.144531-32.644531-17.367188-50.710938-21.3125-6.375-8.808594-9.808593-19.40625-9.816406-30.28125.027344-28.929688 23.472656-52.378906 52.40625-52.40625zm-288.234375 122.28125h68.539062c2.539063-.003906 4.953126-1.113281 6.609376-3.039062 7.746093-8.972657 16.492187-17.019532 26.074218-23.996094 2.246094-1.636719 3.582032-4.246094 3.589844-7.027344v-43.671875c13.078125 2.660156 24.214844 11.179687 30.203125 23.109375 1.980469 3.910156 6.554687 5.746094 10.691406 4.289062 23.554688-8.183593 48.464844-11.742187 73.367188-10.480468.796875 6.148437 2.425781 12.164062 4.839843 17.878906-4.683593-.445312-9.46875-.734375-14.289062-.734375v17.46875c37.203125-.734375 73.03125 14.066406 98.863281 40.851563l12.867188-11.828126c-2.457031-2.621093-5.136719-5.101562-7.792969-7.554687 6.6875-2.582031 12.929688-6.191406 18.507812-10.691406 22.441407 19.902343 37.308594 46.953125 42.074219 76.566406h-16.035156v17.46875h17.46875c-.453125 33.140625-13.828125 64.792969-37.277344 88.214844-3.300781 3.425781-3.253906 8.863281.101563 12.230469l38.972656 38.972656h-28.324219c-4.824219 0-8.734375 3.910156-8.734375 8.734375v28.28125l-48.914062-48.914063c-2.484375-2.488281-6.226563-3.246094-9.484375-1.910156-44.421875 17.996094-93.957031 18.820312-138.953125 2.3125-3.199219-1.183594-6.796875-.394531-9.207032 2.019531l-46.546874 46.492188v-28.28125c0-4.824219-3.910157-8.734375-8.734376-8.734375h-28.324218l34.9375-34.9375c3.410156-3.410156 3.410156-8.941406 0-12.351563-.039063-.042969-.082032-.082031-.121094-.121093-8.609375-8.191407-16.164062-17.425782-22.484375-27.488282-1.371094-2.214844-3.664063-3.699218-6.246094-4.050781-32.167969-4.496094-56.140625-31.960937-56.238281-64.441406zm0 0"/><path d="m148.984375 235.828125c9.648437 0 17.46875 7.820313 17.46875 17.46875h17.46875c0-19.296875-15.644531-34.9375-34.9375-34.9375-19.296875 0-34.9375 15.640625-34.9375 34.9375h17.46875c0-9.648437 7.820313-17.46875 17.46875-17.46875zm0 0"/><path d="m70.375 270.765625c0-14.472656-11.734375-26.203125-26.203125-26.203125v17.46875c4.824219 0 8.734375 3.910156 8.734375 8.734375s-3.910156 8.734375-8.734375 8.734375v17.46875c14.472656 0 26.203125-11.730469 26.203125-26.203125zm0 0"/></svg>