<svg xmlns="http://www.w3.org/2000/svg" height="512pt" version="1.1" viewBox="0 -85 512 512" width="512pt">
<g id="surface1">
<path d="M 273.066406 179.199219 L 8.535156 179.199219 L 8.535156 332.800781 L 503.464844 332.800781 L 503.464844 179.199219 Z M 426.667969 307.199219 L 85.332031 307.199219 C 57.054688 307.199219 34.132812 284.277344 34.132812 256 C 34.132812 227.722656 57.054688 204.800781 85.332031 204.800781 L 426.667969 204.800781 C 454.941406 204.800781 477.867188 227.722656 477.867188 256 C 477.867188 284.277344 454.945312 307.199219 426.667969 307.199219 Z M 426.667969 307.199219 " style=" stroke:none;fill-rule:nonzero;fill:rgb(100%,80.392157%,0%);fill-opacity:1;" />
<path d="M 426.667969 204.800781 L 85.332031 204.800781 C 57.054688 204.800781 34.132812 227.722656 34.132812 256 C 34.132812 284.277344 57.054688 307.199219 85.332031 307.199219 L 426.667969 307.199219 C 454.941406 307.199219 477.867188 284.277344 477.867188 256 C 477.867188 227.722656 454.945312 204.800781 426.667969 204.800781 Z M 102.398438 281.601562 C 88.261719 281.601562 76.800781 270.140625 76.800781 256 C 76.800781 241.863281 88.261719 230.398438 102.398438 230.398438 C 116.539062 230.398438 128 241.863281 128 256 C 128 270.140625 116.539062 281.601562 102.398438 281.601562 Z M 179.199219 281.601562 C 165.0625 281.601562 153.601562 270.140625 153.601562 256 C 153.601562 241.863281 165.0625 230.398438 179.199219 230.398438 C 193.339844 230.398438 204.800781 241.863281 204.800781 256 C 204.800781 270.140625 193.339844 281.601562 179.199219 281.601562 Z M 256 281.601562 C 241.859375 281.601562 230.398438 270.140625 230.398438 256 C 230.398438 241.863281 241.859375 230.398438 256 230.398438 C 270.136719 230.398438 281.601562 241.863281 281.601562 256 C 281.601562 270.140625 270.136719 281.601562 256 281.601562 Z M 332.800781 281.601562 C 318.660156 281.601562 307.199219 270.140625 307.199219 256 C 307.199219 241.863281 318.660156 230.398438 332.800781 230.398438 C 346.9375 230.398438 358.398438 241.863281 358.398438 256 C 358.398438 270.140625 346.9375 281.601562 332.800781 281.601562 Z M 409.597656 281.601562 C 395.460938 281.601562 384 270.140625 384 256 C 384 241.863281 395.460938 230.398438 409.597656 230.398438 C 423.738281 230.398438 435.199219 241.863281 435.199219 256 C 435.199219 270.140625 423.738281 281.601562 409.597656 281.601562 Z M 409.597656 281.601562 " style=" stroke:none;fill-rule:nonzero;fill:rgb(77.647059%,77.254902%,79.215686%);fill-opacity:1;" />
<path d="M 281.601562 256 C 281.601562 270.140625 270.136719 281.601562 256 281.601562 C 241.859375 281.601562 230.398438 270.140625 230.398438 256 C 230.398438 241.863281 241.859375 230.398438 256 230.398438 C 270.136719 230.398438 281.601562 241.863281 281.601562 256 Z M 281.601562 256 " style=" stroke:none;fill-rule:nonzero;fill:rgb(34.117647%,33.72549%,36.078431%);fill-opacity:1;" />
<path d="M 358.398438 256 C 358.398438 270.140625 346.9375 281.601562 332.800781 281.601562 C 318.660156 281.601562 307.199219 270.140625 307.199219 256 C 307.199219 241.863281 318.660156 230.398438 332.800781 230.398438 C 346.9375 230.398438 358.398438 241.863281 358.398438 256 Z M 358.398438 256 " style=" stroke:none;fill-rule:nonzero;fill:rgb(34.117647%,33.72549%,36.078431%);fill-opacity:1;" />
<path d="M 435.199219 256 C 435.199219 270.140625 423.738281 281.601562 409.597656 281.601562 C 395.460938 281.601562 384 270.140625 384 256 C 384 241.863281 395.460938 230.398438 409.597656 230.398438 C 423.738281 230.398438 435.199219 241.863281 435.199219 256 Z M 435.199219 256 " style=" stroke:none;fill-rule:nonzero;fill:rgb(34.117647%,33.72549%,36.078431%);fill-opacity:1;" />
<path d="M 204.800781 256 C 204.800781 270.140625 193.339844 281.601562 179.199219 281.601562 C 165.0625 281.601562 153.601562 270.140625 153.601562 256 C 153.601562 241.863281 165.0625 230.398438 179.199219 230.398438 C 193.339844 230.398438 204.800781 241.863281 204.800781 256 Z M 204.800781 256 " style=" stroke:none;fill-rule:nonzero;fill:rgb(34.117647%,33.72549%,36.078431%);fill-opacity:1;" />
<path d="M 128 256 C 128 270.140625 116.539062 281.601562 102.398438 281.601562 C 88.261719 281.601562 76.800781 270.140625 76.800781 256 C 76.800781 241.863281 88.261719 230.398438 102.398438 230.398438 C 116.539062 230.398438 128 241.863281 128 256 Z M 128 256 " style=" stroke:none;fill-rule:nonzero;fill:rgb(34.117647%,33.72549%,36.078431%);fill-opacity:1;" />
<path d="M 238.933594 8.535156 L 153.601562 8.535156 L 153.601562 85.332031 L 119.46875 85.332031 L 119.46875 8.535156 L 34.132812 8.535156 L 34.132812 179.199219 L 238.933594 179.199219 Z M 238.933594 8.535156 " style=" stroke:none;fill-rule:nonzero;fill:rgb(54.509804%,36.862745%,23.529412%);fill-opacity:1;" />
<path d="M 477.867188 8.535156 L 392.535156 8.535156 L 392.535156 85.332031 L 358.398438 85.332031 L 358.398438 8.535156 L 273.066406 8.535156 L 273.066406 179.199219 L 477.867188 179.199219 Z M 477.867188 8.535156 " style=" stroke:none;fill-rule:nonzero;fill:rgb(66.27451%,48.627451%,31.372549%);fill-opacity:1;" />
<path d="M 119.464844 8.535156 L 153.601562 8.535156 L 153.601562 85.332031 L 119.464844 85.332031 Z M 119.464844 8.535156 " style=" stroke:none;fill-rule:nonzero;fill:rgb(100%,80.392157%,0%);fill-opacity:1;" />
<path d="M 358.398438 8.535156 L 392.535156 8.535156 L 392.535156 85.332031 L 358.398438 85.332031 Z M 358.398438 8.535156 " style=" stroke:none;fill-rule:nonzero;fill:rgb(100%,80.392157%,0%);fill-opacity:1;" />
<path d="M 503.464844 170.667969 L 486.398438 170.667969 L 486.398438 8.535156 C 486.398438 3.820312 482.578125 0 477.867188 0 L 273.066406 0 C 268.351562 0 264.53125 3.820312 264.53125 8.535156 L 264.53125 170.667969 L 247.464844 170.667969 L 247.464844 8.535156 C 247.464844 3.820312 243.644531 0 238.933594 0 L 34.132812 0 C 29.421875 0 25.601562 3.820312 25.601562 8.535156 L 25.601562 170.667969 L 8.535156 170.667969 C 3.820312 170.667969 0 174.488281 0 179.199219 L 0 332.800781 C 0 337.511719 3.820312 341.332031 8.535156 341.332031 L 503.464844 341.332031 C 508.179688 341.332031 512 337.511719 512 332.800781 L 512 179.199219 C 512 174.488281 508.179688 170.667969 503.464844 170.667969 Z M 384 17.066406 L 384 76.800781 L 366.933594 76.800781 L 366.933594 17.066406 Z M 281.601562 17.066406 L 349.867188 17.066406 L 349.867188 85.332031 C 349.867188 90.046875 353.6875 93.867188 358.398438 93.867188 L 392.535156 93.867188 C 397.246094 93.867188 401.066406 90.046875 401.066406 85.332031 L 401.066406 17.066406 L 469.332031 17.066406 L 469.332031 170.667969 L 281.601562 170.667969 Z M 145.066406 17.066406 L 145.066406 76.800781 L 128 76.800781 L 128 17.066406 Z M 42.667969 17.066406 L 110.933594 17.066406 L 110.933594 85.332031 C 110.933594 90.046875 114.753906 93.867188 119.46875 93.867188 L 153.601562 93.867188 C 158.3125 93.867188 162.132812 90.046875 162.132812 85.332031 L 162.132812 17.066406 L 230.402344 17.066406 L 230.402344 170.667969 L 42.667969 170.667969 Z M 494.933594 324.265625 L 17.066406 324.265625 L 17.066406 187.734375 L 494.933594 187.734375 Z M 494.933594 324.265625 " style=" stroke:none;fill-rule:nonzero;fill:rgb(13.72549%,12.156863%,12.54902%);fill-opacity:1;" />
<path d="M 426.667969 196.265625 L 85.332031 196.265625 C 52.34375 196.265625 25.597656 223.011719 25.597656 256 C 25.597656 288.992188 52.34375 315.734375 85.332031 315.734375 L 426.667969 315.734375 C 459.65625 315.734375 486.398438 288.992188 486.398438 256 C 486.398438 223.011719 459.65625 196.265625 426.667969 196.265625 Z M 426.667969 298.667969 L 85.332031 298.667969 C 61.769531 298.667969 42.667969 279.566406 42.667969 256 C 42.667969 232.4375 61.769531 213.332031 85.332031 213.332031 L 426.667969 213.332031 C 450.230469 213.332031 469.332031 232.4375 469.332031 256 C 469.332031 279.566406 450.230469 298.667969 426.667969 298.667969 Z M 426.667969 298.667969 " style=" stroke:none;fill-rule:nonzero;fill:rgb(13.72549%,12.156863%,12.54902%);fill-opacity:1;" />
<path d="M 256 221.867188 C 237.148438 221.867188 221.867188 237.148438 221.867188 256 C 221.867188 274.851562 237.148438 290.132812 256 290.132812 C 274.851562 290.132812 290.132812 274.851562 290.132812 256 C 290.132812 237.148438 274.851562 221.867188 256 221.867188 Z M 256 273.066406 C 246.574219 273.066406 238.933594 265.425781 238.933594 256 C 238.933594 246.574219 246.574219 238.933594 256 238.933594 C 265.425781 238.933594 273.066406 246.574219 273.066406 256 C 273.066406 265.425781 265.425781 273.066406 256 273.066406 Z M 256 273.066406 " style=" stroke:none;fill-rule:nonzero;fill:rgb(13.72549%,12.156863%,12.54902%);fill-opacity:1;" />
<path d="M 332.800781 221.867188 C 313.949219 221.867188 298.667969 237.148438 298.667969 256 C 298.667969 274.851562 313.949219 290.132812 332.800781 290.132812 C 351.652344 290.132812 366.933594 274.851562 366.933594 256 C 366.933594 237.148438 351.652344 221.867188 332.800781 221.867188 Z M 332.800781 273.066406 C 323.375 273.066406 315.734375 265.425781 315.734375 256 C 315.734375 246.574219 323.375 238.933594 332.800781 238.933594 C 342.226562 238.933594 349.867188 246.574219 349.867188 256 C 349.867188 265.425781 342.226562 273.066406 332.800781 273.066406 Z M 332.800781 273.066406 " style=" stroke:none;fill-rule:nonzero;fill:rgb(13.72549%,12.156863%,12.54902%);fill-opacity:1;" />
<path d="M 409.597656 221.867188 C 390.75 221.867188 375.464844 237.148438 375.464844 256 C 375.464844 274.851562 390.75 290.132812 409.597656 290.132812 C 428.449219 290.132812 443.734375 274.851562 443.734375 256 C 443.734375 237.148438 428.453125 221.867188 409.597656 221.867188 Z M 409.597656 273.066406 C 400.175781 273.066406 392.53125 265.425781 392.53125 256 C 392.53125 246.574219 400.175781 238.933594 409.597656 238.933594 C 419.023438 238.933594 426.667969 246.574219 426.667969 256 C 426.667969 265.425781 419.027344 273.066406 409.597656 273.066406 Z M 409.597656 273.066406 " style=" stroke:none;fill-rule:nonzero;fill:rgb(13.72549%,12.156863%,12.54902%);fill-opacity:1;" />
<path d="M 179.199219 221.867188 C 160.347656 221.867188 145.066406 237.148438 145.066406 256 C 145.066406 274.851562 160.347656 290.132812 179.199219 290.132812 C 198.050781 290.132812 213.332031 274.851562 213.332031 256 C 213.332031 237.148438 198.050781 221.867188 179.199219 221.867188 Z M 179.199219 273.066406 C 169.773438 273.066406 162.132812 265.425781 162.132812 256 C 162.132812 246.574219 169.773438 238.933594 179.199219 238.933594 C 188.625 238.933594 196.265625 246.574219 196.265625 256 C 196.265625 265.425781 188.625 273.066406 179.199219 273.066406 Z M 179.199219 273.066406 " style=" stroke:none;fill-rule:nonzero;fill:rgb(13.72549%,12.156863%,12.54902%);fill-opacity:1;" />
<path d="M 102.398438 221.867188 C 83.546875 221.867188 68.265625 237.148438 68.265625 256 C 68.265625 274.851562 83.546875 290.132812 102.398438 290.132812 C 121.25 290.132812 136.53125 274.851562 136.53125 256 C 136.53125 237.148438 121.25 221.867188 102.398438 221.867188 Z M 102.398438 273.066406 C 92.972656 273.066406 85.332031 265.425781 85.332031 256 C 85.332031 246.574219 92.972656 238.933594 102.398438 238.933594 C 111.824219 238.933594 119.464844 246.574219 119.464844 256 C 119.464844 265.425781 111.824219 273.066406 102.398438 273.066406 Z M 102.398438 273.066406 " style=" stroke:none;fill-rule:nonzero;fill:rgb(13.72549%,12.156863%,12.54902%);fill-opacity:1;" />
<path d="M 153.601562 145.066406 L 119.464844 145.066406 C 114.753906 145.066406 110.933594 148.886719 110.933594 153.601562 C 110.933594 158.3125 114.753906 162.132812 119.464844 162.132812 L 153.601562 162.132812 C 158.3125 162.132812 162.132812 158.3125 162.132812 153.601562 C 162.132812 148.886719 158.3125 145.066406 153.601562 145.066406 Z M 153.601562 145.066406 " style=" stroke:none;fill-rule:nonzero;fill:rgb(13.72549%,12.156863%,12.54902%);fill-opacity:1;" />
<path d="M 392.535156 145.066406 L 358.398438 145.066406 C 353.6875 145.066406 349.867188 148.886719 349.867188 153.601562 C 349.867188 158.3125 353.6875 162.132812 358.398438 162.132812 L 392.535156 162.132812 C 397.246094 162.132812 401.066406 158.3125 401.066406 153.601562 C 401.066406 148.886719 397.246094 145.066406 392.535156 145.066406 Z M 392.535156 145.066406 " style=" stroke:none;fill-rule:nonzero;fill:rgb(13.72549%,12.156863%,12.54902%);fill-opacity:1;" />
</g>
</svg>