<?xml version="1.0" encoding="iso-8859-1"?>
<!-- Generator: Adobe Illustrator 21.0.0, SVG Export Plug-In . SVG Version: 6.00 Build 0)  -->
<svg version="1.1" id="Capa_1" xmlns="http://www.w3.org/2000/svg" xmlns:xlink="http://www.w3.org/1999/xlink" x="0px" y="0px"
	 viewBox="0 0 511.867 511.867" style="enable-background:new 0 0 511.867 511.867;" xml:space="preserve">
<g>
	<path style="fill:#26B99A;" d="M212.544,320.952h277.695c9.585,0,17.356,7.771,17.356,17.356v156.203
		c0,9.585-7.771,17.356-17.356,17.356H212.544c-9.585,0-17.356-7.771-17.356-17.356V338.308
		C195.188,328.723,202.958,320.952,212.544,320.952z"/>
	<g>
		<path style="fill:#65DDB9;" d="M247.256,442.444h34.712c4.793,0,8.678,3.885,8.678,8.678v17.356c0,4.793-3.885,8.678-8.678,8.678
			h-34.712c-4.793,0-8.678-3.885-8.678-8.678v-17.356C238.578,446.329,242.463,442.444,247.256,442.444z"/>
		<path style="fill:#65DDB9;" d="M334.035,442.444h34.712c4.793,0,8.678,3.885,8.678,8.678v17.356c0,4.793-3.885,8.678-8.678,8.678
			h-34.712c-4.793,0-8.678-3.885-8.678-8.678v-17.356C325.357,446.329,329.243,442.444,334.035,442.444z"/>
		<path style="fill:#65DDB9;" d="M420.815,442.444h34.712c4.793,0,8.678,3.885,8.678,8.678v17.356c0,4.793-3.885,8.678-8.678,8.678
			h-34.712c-4.793,0-8.678-3.885-8.678-8.678v-17.356C412.137,446.329,416.022,442.444,420.815,442.444z"/>
	</g>
	<g>
		<path style="fill:#14A085;" d="M446.849,355.664H247.256c-4.793,0-8.678,3.885-8.678,8.678c0,4.793,3.885,8.678,8.678,8.678
			h199.593c4.793,0,8.678-3.885,8.678-8.678C455.527,359.549,451.642,355.664,446.849,355.664z"/>
		<path style="fill:#14A085;" d="M368.747,390.376H247.256c-4.793,0-8.678,3.885-8.678,8.678s3.885,8.678,8.678,8.678h121.492
			c4.793,0,8.678-3.885,8.678-8.678S373.54,390.376,368.747,390.376z"/>
	</g>
	<g>
		<path style="fill:#E57E25;" d="M91.052,43.257h65.831l-11.221,11.221c-2.256,2.179-3.161,5.405-2.366,8.439
			c0.794,3.034,3.164,5.404,6.198,6.198c3.034,0.794,6.261-0.111,8.439-2.366l26.034-26.034c0.078-0.078,0.104-0.182,0.174-0.26
			c0.726-0.74,1.314-1.604,1.736-2.551c0-0.069,0-0.156,0.052-0.234c0.328-0.873,0.509-1.793,0.538-2.725
			c-0.001-0.29-0.018-0.58-0.052-0.868c-0.043-0.727-0.183-1.445-0.417-2.135c-0.083-0.295-0.184-0.585-0.304-0.868
			c-0.414-0.967-1.002-1.85-1.736-2.603L157.925,2.436c-3.405-3.289-8.818-3.242-12.165,0.106s-3.394,8.76-0.106,12.165
			l11.229,11.195H91.052c-4.793,0-8.678,3.885-8.678,8.678S86.26,43.257,91.052,43.257z"/>
		<path style="fill:#E57E25;" d="M169.041,381.134c-0.043-0.727-0.183-1.445-0.417-2.135c-0.083-0.295-0.184-0.585-0.304-0.868
			c-0.414-0.967-1.002-1.85-1.736-2.603l-26.034-26.034c-3.405-3.289-8.818-3.242-12.165,0.106
			c-3.347,3.347-3.394,8.76-0.106,12.165l11.247,11.255H91.052c-4.793,0-8.678,3.885-8.678,8.678s3.885,8.678,8.678,8.678h48.475
			l-11.221,11.221c-2.256,2.179-3.161,5.405-2.366,8.439s3.164,5.404,6.198,6.198s6.261-0.111,8.439-2.366l26.034-26.034
			c0.078-0.078,0.104-0.182,0.174-0.26c0.726-0.74,1.314-1.604,1.736-2.551c0-0.069,0-0.156,0.052-0.234
			c0.328-0.873,0.509-1.793,0.538-2.725C169.106,381.752,169.083,381.442,169.041,381.134z"/>
		<path style="fill:#E57E25;" d="M353.934,54.478c-2.256,2.179-3.161,5.405-2.366,8.439c0.794,3.034,3.164,5.404,6.198,6.198
			c3.034,0.794,6.261-0.111,8.439-2.366l26.034-26.034c0.078-0.078,0.104-0.182,0.174-0.26c0.726-0.74,1.314-1.604,1.736-2.551
			c0-0.069,0-0.156,0.052-0.234c0.328-0.873,0.509-1.793,0.538-2.725c-0.001-0.29-0.018-0.58-0.052-0.868
			c-0.043-0.727-0.183-1.445-0.417-2.135c-0.083-0.295-0.184-0.585-0.304-0.868c-0.414-0.967-1.002-1.85-1.736-2.603L366.196,2.436
			c-3.405-3.289-8.818-3.242-12.165,0.106c-3.347,3.347-3.394,8.76-0.106,12.165l11.229,11.195h-65.831
			c-4.793,0-8.678,3.885-8.678,8.678s3.885,8.678,8.678,8.678h65.831L353.934,54.478z"/>
		<path style="fill:#E57E25;" d="M212.544,199.461h-65.831l11.221-11.221c3.289-3.405,3.242-8.818-0.106-12.165
			c-3.347-3.347-8.76-3.394-12.165-0.106l-26.034,26.034c-0.734,0.754-1.322,1.636-1.736,2.603c-0.12,0.283-0.221,0.572-0.304,0.868
			c-0.233,0.69-0.373,1.408-0.417,2.135c-0.034,0.288-0.051,0.578-0.052,0.868c0.029,0.932,0.21,1.852,0.538,2.725
			c0,0.078,0,0.165,0.052,0.234c0.421,0.947,1.009,1.811,1.736,2.551c0.069,0.078,0.095,0.182,0.174,0.26l26.034,26.034
			c3.405,3.289,8.818,3.242,12.165-0.106c3.347-3.347,3.394-8.76,0.106-12.165l-11.212-11.195h65.831
			c4.793,0,8.678-3.885,8.678-8.678S217.337,199.461,212.544,199.461z"/>
		<path style="fill:#E57E25;" d="M420.815,199.461h-65.831l11.221-11.221c3.289-3.405,3.242-8.818-0.106-12.165
			c-3.347-3.347-8.76-3.394-12.165-0.106L327.9,202.003c-0.734,0.754-1.322,1.636-1.736,2.603c-0.12,0.283-0.221,0.572-0.304,0.868
			c-0.233,0.69-0.374,1.408-0.417,2.135c-0.034,0.288-0.051,0.578-0.052,0.868c0.029,0.932,0.21,1.852,0.538,2.725
			c0,0.078,0,0.165,0.052,0.234c0.421,0.947,1.009,1.811,1.736,2.551c0.069,0.078,0.095,0.182,0.174,0.26l26.034,26.034
			c3.405,3.289,8.818,3.242,12.165-0.106c3.347-3.347,3.394-8.76,0.106-12.165l-11.212-11.195h65.831
			c4.793,0,8.678-3.885,8.678-8.678S425.608,199.461,420.815,199.461z"/>
		<path style="fill:#E57E25;" d="M496.374,115.224c-3.389-3.388-8.882-3.388-12.271,0l-11.221,11.221V60.613
			c0-4.793-3.885-8.678-8.678-8.678c-4.793,0-8.678,3.885-8.678,8.678v65.831l-11.221-11.221c-3.405-3.289-8.818-3.242-12.165,0.106
			c-3.347,3.347-3.394,8.76-0.106,12.165l26.034,26.034c0.078,0.078,0.182,0.104,0.26,0.174c0.74,0.726,1.604,1.314,2.551,1.736
			c3.236,1.332,6.956,0.589,9.433-1.883l26.034-26.034c1.638-1.625,2.562-3.835,2.567-6.143
			C498.92,119.07,498.005,116.855,496.374,115.224z"/>
		<path style="fill:#E57E25;" d="M79.832,288.783c-3.389-3.388-8.882-3.388-12.271,0L56.34,300.003v-65.831
			c0-4.793-3.885-8.678-8.678-8.678s-8.678,3.885-8.678,8.678v65.831l-11.221-11.221c-3.405-3.289-8.818-3.242-12.165,0.106
			c-3.347,3.347-3.394,8.76-0.106,12.165l26.034,26.034c0.078,0.078,0.182,0.104,0.26,0.174c0.74,0.726,1.604,1.314,2.551,1.736
			c3.236,1.332,6.956,0.589,9.433-1.883l26.034-26.034c1.638-1.625,2.562-3.835,2.567-6.143
			C82.377,292.629,81.463,290.415,79.832,288.783z"/>
	</g>
	<g>
		<path style="fill:#F0C419;" d="M12.951,8.545h69.424c4.793,0,8.678,3.885,8.678,8.678v34.712c0,4.793-3.885,8.678-8.678,8.678
			H12.951c-4.793,0-8.678-3.885-8.678-8.678V17.223C4.273,12.431,8.158,8.545,12.951,8.545z"/>
		<path style="fill:#F0C419;" d="M12.951,182.105h69.424c4.793,0,8.678,3.885,8.678,8.678v34.712c0,4.793-3.885,8.678-8.678,8.678
			H12.951c-4.793,0-8.678-3.885-8.678-8.678v-34.712C4.273,185.99,8.158,182.105,12.951,182.105z"/>
		<path style="fill:#F0C419;" d="M221.222,8.545h69.424c4.793,0,8.678,3.885,8.678,8.678v34.712c0,4.793-3.885,8.678-8.678,8.678
			h-69.424c-4.793,0-8.678-3.885-8.678-8.678V17.223C212.544,12.431,216.429,8.545,221.222,8.545z"/>
		<path style="fill:#F0C419;" d="M429.493,8.545h69.424c4.793,0,8.678,3.885,8.678,8.678v34.712c0,4.793-3.885,8.678-8.678,8.678
			h-69.424c-4.793,0-8.678-3.885-8.678-8.678V17.223C420.815,12.431,424.7,8.545,429.493,8.545z"/>
		<path style="fill:#F0C419;" d="M429.493,182.105h69.424c4.793,0,8.678,3.885,8.678,8.678v34.712c0,4.793-3.885,8.678-8.678,8.678
			h-69.424c-4.793,0-8.678-3.885-8.678-8.678v-34.712C420.815,185.99,424.7,182.105,429.493,182.105z"/>
		<path style="fill:#F0C419;" d="M290.646,234.172h-69.424c-4.793,0-8.678-3.885-8.678-8.678v-34.712
			c0-4.793,3.885-8.678,8.678-8.678h69.424c4.793,0,8.678,3.885,8.678,8.678v34.712
			C299.323,230.287,295.438,234.172,290.646,234.172z"/>
		<path style="fill:#F0C419;" d="M82.374,407.732H12.951c-4.793,0-8.678-3.885-8.678-8.678v-34.712c0-4.793,3.885-8.678,8.678-8.678
			h69.424c4.793,0,8.678,3.885,8.678,8.678v34.712C91.052,403.846,87.167,407.732,82.374,407.732z"/>
	</g>
</g>
<g>
</g>
<g>
</g>
<g>
</g>
<g>
</g>
<g>
</g>
<g>
</g>
<g>
</g>
<g>
</g>
<g>
</g>
<g>
</g>
<g>
</g>
<g>
</g>
<g>
</g>
<g>
</g>
<g>
</g>
</svg>
