<svg height="480pt" viewBox="0 0 480 480" width="480pt" xmlns="http://www.w3.org/2000/svg"><path d="m104 120c8.835938 0 16-7.164062 16-16v-96h224c8.824219.027344 15.972656 7.175781 16 16v424c0 13.253906-10.746094 24-24 24h-304c-13.253906 0-24-10.746094-24-24v-328zm0 0" fill="#cab9a4"/><path d="m120 104v-96l-112 112h96c8.835938 0 16-7.164062 16-16zm0 0" fill="#a28872"/><path d="m472 136h-224v304h224zm-160 272h-32v-32h32zm0-64h-32v-32h32zm0-64h-32v-32h32zm64 128h-32v-32h32zm0-64h-32v-32h32zm0-64h-32v-32h32zm64 128h-32v-96h32zm0-128h-32v-32h32zm0-64h-160v-48h160zm0 0" fill="#acabb1"/><path d="m280 168h160v48h-160zm0 0" fill="#00d7df"/><path d="m280 248h32v32h-32zm0 0" fill="#d80027"/><path d="m344 248h32v32h-32zm0 0" fill="#d80027"/><path d="m408 248h32v32h-32zm0 0" fill="#d80027"/><path d="m280 312h32v32h-32zm0 0" fill="#d80027"/><path d="m344 312h32v32h-32zm0 0" fill="#d80027"/><path d="m408 312h32v96h-32zm0 0" fill="#d80027"/><path d="m280 376h32v32h-32zm0 0" fill="#d80027"/><path d="m344 376h32v32h-32zm0 0" fill="#d80027"/><path d="m216 240c0-48.601562-39.398438-88-88-88s-88 39.398438-88 88 39.398438 88 88 88 88-39.398438 88-88zm-120 24c0 13.257812 14.328125 24 32 24v-48c-17.671875 0-32-10.742188-32-24s14.328125-24 32-24 32 10.742188 32 24c0-13.257812-14.328125-24-32-24v48c17.671875 0 32 10.742188 32 24s-14.328125 24-32 24-32-10.742188-32-24zm0 0" fill="#ffda44"/><path d="m96 216c0 13.257812 14.328125 24 32 24v-48c-17.671875 0-32 10.742188-32 24zm0 0" fill="#ffda44"/><path d="m160 264c0-13.257812-14.328125-24-32-24v48c17.671875 0 32-10.742188 32-24zm0 0" fill="#ffda44"/><g fill="#231f20"><path d="m400 240v48h48v-48zm32 32h-16v-16h16zm0 0"/><path d="m144 32h192v16h-192zm0 0"/><path d="m240 64h96v16h-96zm0 0"/><path d="m144 64h80v16h-80zm0 0"/><path d="m144 96h192v16h-192zm0 0"/><path d="m480 128h-112v-104c0-13.253906-10.746094-24-24-24h-227.3125l-116.6875 116.6875v339.3125c0 13.253906 10.746094 24 24 24h320c13.253906 0 24-10.746094 24-24v-8h112zm-368-100.6875v76.6875c0 4.417969-3.582031 8-8 8h-76.6875zm240 428.6875c0 4.417969-3.582031 8-8 8h-320c-4.417969 0-8-3.582031-8-8v-328h88c13.253906 0 24-10.746094 24-24v-88h216c4.417969 0 8 3.582031 8 8v104h-112v320h112zm112-24h-208v-288h208zm0 0"/><path d="m448 160h-176v64h176zm-16 48h-144v-32h144zm0 0"/><path d="m320 240h-48v48h48zm-16 32h-16v-16h16zm0 0"/><path d="m336 288h48v-48h-48zm16-32h16v16h-16zm0 0"/><path d="m320 304h-48v48h48zm-16 32h-16v-16h16zm0 0"/><path d="m336 352h48v-48h-48zm16-32h16v16h-16zm0 0"/><path d="m400 416h48v-112h-48zm16-96h16v80h-16zm0 0"/><path d="m320 368h-48v48h48zm-16 32h-16v-16h16zm0 0"/><path d="m336 416h48v-48h-48zm16-32h16v16h-16zm0 0"/><path d="m152 216h16c0-15.457031-13.769531-28.375-32-31.351562v-8.648438h-16v8.648438c-18.230469 2.976562-32 15.894531-32 31.351562s13.769531 28.375 32 31.351562v31.632813c-9.199219-2.265625-16-8.175781-16-14.984375h-16c0 15.457031 13.769531 28.375 32 31.351562v8.648438h16v-8.648438c18.230469-2.976562 32-15.894531 32-31.351562s-13.769531-28.375-32-31.351562v-31.632813c9.199219 2.265625 16 8.175781 16 14.984375zm-48 0c0-6.808594 6.800781-12.71875 16-14.984375v29.96875c-9.199219-2.265625-16-8.175781-16-14.984375zm48 48c0 6.808594-6.800781 12.71875-16 14.984375v-29.96875c9.199219 2.265625 16 8.175781 16 14.984375zm0 0"/><path d="m128 144c-53.019531 0-96 42.980469-96 96s42.980469 96 96 96 96-42.980469 96-96c-.058594-52.996094-43.003906-95.941406-96-96zm0 176c-44.183594 0-80-35.816406-80-80s35.816406-80 80-80 80 35.816406 80 80c-.046875 44.164062-35.835938 79.953125-80 80zm0 0"/><path d="m32 352h192v16h-192zm0 0"/><path d="m128 384h96v16h-96zm0 0"/><path d="m32 384h80v16h-80zm0 0"/><path d="m32 416h192v16h-192zm0 0"/><path d="m64 232h8v16h-8zm0 0"/><path d="m184 232h8v16h-8zm0 0"/></g></svg>