<?xml version="1.0" encoding="iso-8859-1"?>
<!-- Generator: Adobe Illustrator 21.0.0, SVG Export Plug-In . SVG Version: 6.00 Build 0)  -->
<svg version="1.1" id="Capa_1" xmlns="http://www.w3.org/2000/svg" xmlns:xlink="http://www.w3.org/1999/xlink" x="0px" y="0px"
	 viewBox="0 0 512 512" style="enable-background:new 0 0 512 512;" xml:space="preserve">
<circle style="fill:#FFD400;" cx="256" cy="256" r="256"/>
<path style="fill:#FFB000;" d="M512,256c0-8.131-0.396-16.169-1.138-24.106l-80.243-80.244l-88.052,96.291l-96.291-96.291
	L81.382,317.471l97.505,97.505L158.5,431.063l80.352,80.352C244.521,511.79,250.236,512,256,512C397.385,512,512,397.385,512,256z"
	/>
<polygon style="fill:#F2F6FC;" points="382.181,103.212 265.725,103.212 265.725,317.471 430.618,317.471 430.618,151.65 "/>
<polygon style="fill:#DCE1EB;" points="382.181,151.65 430.618,151.65 382.181,103.212 "/>
<polygon style="fill:#FFFFFF;" points="197.838,103.212 81.382,103.212 81.382,317.471 246.275,317.471 246.275,151.65 "/>
<polygon style="fill:#E9EDF5;" points="197.838,151.65 246.275,151.65 197.838,103.212 "/>
<polygon style="fill:#00C8C8;" points="296.219,177.685 158.5,177.685 158.5,431.064 353.5,431.064 353.5,234.967 "/>
<polygon style="fill:#1CADB5;" points="353.5,234.967 296.219,177.685 255.571,177.685 255.571,431.063 353.5,431.063 "/>
<polygon style="fill:#64E1DC;" points="296.219,234.967 353.5,234.967 296.219,177.685 "/>
<polygon style="fill:#FFFFFF;" points="238.41,388.618 186.191,336.399 212.355,310.236 238.41,336.292 299.646,275.056 
	325.808,301.219 "/>
<polygon style="fill:#F2F6FC;" points="299.646,275.056 255.571,319.13 255.571,371.456 325.808,301.219 "/>
<g>
</g>
<g>
</g>
<g>
</g>
<g>
</g>
<g>
</g>
<g>
</g>
<g>
</g>
<g>
</g>
<g>
</g>
<g>
</g>
<g>
</g>
<g>
</g>
<g>
</g>
<g>
</g>
<g>
</g>
</svg>
