<?xml version="1.0" encoding="iso-8859-1"?>
<!-- Generator: Adobe Illustrator 19.0.0, SVG Export Plug-In . SVG Version: 6.00 Build 0)  -->
<svg version="1.1" id="Capa_1" xmlns="http://www.w3.org/2000/svg" xmlns:xlink="http://www.w3.org/1999/xlink" x="0px" y="0px"
	 viewBox="0 0 480 480" style="enable-background:new 0 0 480 480;" xml:space="preserve">
<path style="fill:#E6E6E6;" d="M408,32h40c13.255,0,24,10.745,24,24v392c0,13.255-10.745,24-24,24l0,0H32c-13.255,0-24-10.745-24-24
	l0,0V56c0-13.255,10.745-24,24-24H408z"/>
<g>
	<path style="fill:#29ABE2;" d="M448,32H32C18.745,32,8,42.745,8,56v40h464V56C472,42.745,461.255,32,448,32z"/>
	<path style="fill:#29ABE2;" d="M341.736,216H352v48h-64v-48h10.264H341.736z"/>
</g>
<g>
	<path style="fill:#FBB03B;" d="M96,8h32c13.255,0,24,10.745,24,24l0,0c0,13.255-10.745,24-24,24H96c-13.255,0-24-10.745-24-24l0,0
		C72,18.745,82.745,8,96,8z"/>
	<path style="fill:#FBB03B;" d="M224,8h32c13.255,0,24,10.745,24,24l0,0c0,13.255-10.745,24-24,24h-32c-13.255,0-24-10.745-24-24
		l0,0C200,18.745,210.745,8,224,8z"/>
	<path style="fill:#FBB03B;" d="M384,56h-32c-13.255,0-24-10.745-24-24l0,0c0-13.255,10.745-24,24-24h32c13.255,0,24,10.745,24,24
		l0,0C408,45.255,397.255,56,384,56z"/>
</g>
<path style="fill:#DA4836;" d="M352,184c0,32-32,56-32,56s-32-24-32-56c0-17.673,14.327-32,32-32S352,166.327,352,184z"/>
<path style="fill:#29ABE2;" d="M101.736,376H112v48H48v-48h10.264H101.736z"/>
<path style="fill:#DA4836;" d="M112,344c0,32-32,56-32,56s-32-24-32-56c0-17.673,14.327-32,32-32S112,326.327,112,344z"/>
<path d="M69.656,189.656L80,179.312l10.344,10.344l11.312-11.312L91.312,168l10.344-10.344l-11.312-11.312L80,156.688
	l-10.344-10.344l-11.312,11.312L68.688,168l-10.344,10.344L69.656,189.656z"/>
<path d="M170.344,146.344L160,156.688l-10.344-10.344l-11.312,11.312L148.688,168l-10.344,10.344l11.312,11.312L160,179.312
	l10.344,10.344l11.312-11.312L171.312,168l10.344-10.344L170.344,146.344z"/>
<path d="M250.344,146.344L240,156.688l-10.344-10.344l-11.312,11.312L228.688,168l-10.344,10.344l11.312,11.312L240,179.312
	l10.344,10.344l11.312-11.312L251.312,168l10.344-10.344L250.344,146.344z"/>
<path d="M410.344,146.344L400,156.688l-10.344-10.344l-11.312,11.312L388.688,168l-10.344,10.344l11.312,11.312L400,179.312
	l10.344,10.344l11.312-11.312L411.312,168l10.344-10.344L410.344,146.344z"/>
<path d="M69.656,269.656L80,259.312l10.344,10.344l11.312-11.312L91.312,248l10.344-10.344l-11.312-11.312L80,236.688
	l-10.344-10.344l-11.312,11.312L68.688,248l-10.344,10.344L69.656,269.656z"/>
<path d="M170.344,226.344L160,236.688l-10.344-10.344l-11.312,11.312L148.688,248l-10.344,10.344l11.312,11.312L160,259.312
	l10.344,10.344l11.312-11.312L171.312,248l10.344-10.344L170.344,226.344z"/>
<path d="M250.344,226.344L240,236.688l-10.344-10.344l-11.312,11.312L228.688,248l-10.344,10.344l11.312,11.312L240,259.312
	l10.344,10.344l11.312-11.312L251.312,248l10.344-10.344L250.344,226.344z"/>
<path d="M410.344,226.344L400,236.688l-10.344-10.344l-11.312,11.312L388.688,248l-10.344,10.344l11.312,11.312L400,259.312
	l10.344,10.344l11.312-11.312L411.312,248l10.344-10.344L410.344,226.344z"/>
<path d="M170.344,306.344L160,316.688l-10.344-10.344l-11.312,11.312L148.688,328l-10.344,10.344l11.312,11.312L160,339.312
	l10.344,10.344l11.312-11.312L171.312,328l10.344-10.344L170.344,306.344z"/>
<path d="M250.344,306.344L240,316.688l-10.344-10.344l-11.312,11.312L228.688,328l-10.344,10.344l11.312,11.312L240,339.312
	l10.344,10.344l11.312-11.312L251.312,328l10.344-10.344L250.344,306.344z"/>
<path d="M330.344,306.344L320,316.688l-10.344-10.344l-11.312,11.312L308.688,328l-10.344,10.344l11.312,11.312L320,339.312
	l10.344,10.344l11.312-11.312L331.312,328l10.344-10.344L330.344,306.344z"/>
<path d="M410.344,306.344L400,316.688l-10.344-10.344l-11.312,11.312L388.688,328l-10.344,10.344l11.312,11.312L400,339.312
	l10.344,10.344l11.312-11.312L411.312,328l10.344-10.344L410.344,306.344z"/>
<path d="M170.344,386.344L160,396.688l-10.344-10.344l-11.312,11.312L148.688,408l-10.344,10.344l11.312,11.312L160,419.312
	l10.344,10.344l11.312-11.312L171.312,408l10.344-10.344L170.344,386.344z"/>
<path d="M250.344,386.344L240,396.688l-10.344-10.344l-11.312,11.312L228.688,408l-10.344,10.344l11.312,11.312L240,419.312
	l10.344,10.344l11.312-11.312L251.312,408l10.344-10.344L250.344,386.344z"/>
<path d="M330.344,386.344L320,396.688l-10.344-10.344l-11.312,11.312L308.688,408l-10.344,10.344l11.312,11.312L320,419.312
	l10.344,10.344l11.312-11.312L331.312,408l10.344-10.344L330.344,386.344z"/>
<path d="M410.344,386.344L400,396.688l-10.344-10.344l-11.312,11.312L388.688,408l-10.344,10.344l11.312,11.312L400,419.312
	l10.344,10.344l11.312-11.312L411.312,408l10.344-10.344L410.344,386.344z"/>
<path d="M312,176h16v16h-16V176z"/>
<path d="M320,144c-22.08,0.026-39.974,17.92-40,40c0.075,8.457,1.869,16.81,5.272,24.552c-3.152,1.123-5.26,4.102-5.272,7.448v48
	c0,4.418,3.582,8,8,8h64c4.418,0,8-3.582,8-8v-48c-0.012-3.346-2.12-6.325-5.272-7.448c3.403-7.742,5.197-16.095,5.272-24.552
	C359.974,161.92,342.08,144.026,320,144z M320,160c13.255,0,24,10.745,24,24c0,20.488-15.8,37.832-24,45.464
	c-8.2-7.632-24-24.976-24-45.464C296,170.745,306.745,160,320,160z M344,256h-48v-29.288c5.536,7.353,11.988,13.969,19.2,19.688
	c2.844,2.133,6.756,2.133,9.6,0c7.212-5.719,13.664-12.335,19.2-19.688L344,256z"/>
<path d="M448,24h-33.136C411.227,9.915,398.547,0.055,384,0h-32c-14.547,0.055-27.227,9.915-30.864,24h-34.272
	C283.227,9.915,270.547,0.055,256,0h-32c-14.547,0.055-27.227,9.915-30.864,24h-34.272C155.227,9.915,142.547,0.055,128,0H96
	C81.453,0.055,68.773,9.915,65.136,24H32C14.327,24,0,38.327,0,56v392c0,17.673,14.327,32,32,32h416c17.673,0,32-14.327,32-32V56
	C480,38.327,465.673,24,448,24L448,24z M352,16h32c8.837,0,16,7.163,16,16s-7.163,16-16,16h-32c-8.837,0-16-7.163-16-16
	S343.163,16,352,16z M224,16h32c8.837,0,16,7.163,16,16s-7.163,16-16,16h-32c-8.837,0-16-7.163-16-16S215.163,16,224,16z M96,16h32
	c8.837,0,16,7.163,16,16s-7.163,16-16,16H96c-8.837,0-16-7.163-16-16S87.163,16,96,16z M32,40h33.136
	C68.773,54.085,81.453,63.945,96,64h32c14.547-0.055,27.227-9.915,30.864-24h34.272c3.637,14.085,16.317,23.945,30.864,24h32
	c14.547-0.055,27.227-9.915,30.864-24h34.272c3.637,14.085,16.317,23.945,30.864,24h32c14.547-0.055,27.227-9.915,30.864-24H448
	c8.837,0,16,7.163,16,16v32H16V56C16,47.163,23.164,40,32,40L32,40z M448,464H32c-8.837,0-16-7.163-16-16V104h448v344
	C464,456.837,456.837,464,448,464z"/>
<path d="M72,336h16v16H72V336z"/>
<path d="M80,304c-22.08,0.026-39.974,17.92-40,40c0.075,8.457,1.869,16.81,5.272,24.552c-3.152,1.123-5.26,4.102-5.272,7.448v48
	c0,4.418,3.582,8,8,8h64c4.418,0,8-3.582,8-8v-48c-0.012-3.346-2.12-6.325-5.272-7.448c3.403-7.742,5.197-16.095,5.272-24.552
	C119.974,321.92,102.08,304.026,80,304z M80,320c13.255,0,24,10.745,24,24c0,20.488-15.8,37.832-24,45.464
	c-8.2-7.632-24-24.976-24-45.464C56,330.745,66.745,320,80,320z M104,416H56v-29.288c5.536,7.353,11.988,13.969,19.2,19.688
	c2.844,2.133,6.756,2.133,9.6,0c7.212-5.719,13.664-12.335,19.2-19.688V416z"/>
<g>
</g>
<g>
</g>
<g>
</g>
<g>
</g>
<g>
</g>
<g>
</g>
<g>
</g>
<g>
</g>
<g>
</g>
<g>
</g>
<g>
</g>
<g>
</g>
<g>
</g>
<g>
</g>
<g>
</g>
</svg>
