<?xml version="1.0" encoding="iso-8859-1"?>
<!-- Generator: Adobe Illustrator 19.0.0, SVG Export Plug-In . SVG Version: 6.00 Build 0)  -->
<svg version="1.1" id="Capa_1" xmlns="http://www.w3.org/2000/svg" xmlns:xlink="http://www.w3.org/1999/xlink" x="0px" y="0px"
	 viewBox="0 0 512 512" style="enable-background:new 0 0 512 512;" xml:space="preserve">
<path style="fill:#FF5D5D;" d="M54,66v377.711c0-30.928,25.072-56,56-56V10C79.072,10,54,35.072,54,66z"/>
<path style="fill:#EDF2FA;" d="M458,390H110c-30.928,0-56,25.072-56,56l0,0c0,30.928,25.072,56,56,56h348V390z"/>
<path style="fill:#72D8FF;" d="M409.641,389.987v81.23l-36-26.717l-36,26.717v-81.23H409.641z"/>
<rect x="110" y="10" style="fill:#FFC66C;" width="348" height="380"/>
<path style="fill:#FF5D5D;" d="M361.917,190H206.083C189.469,190,176,203.469,176,220.083v77.833
	C176,314.531,189.469,328,206.083,328h155.833C378.531,328,392,314.531,392,297.917v-77.833C392,203.469,378.531,190,361.917,190z"
	/>
<path style="fill:#FFFFFF;" d="M306.292,266.635l-34.797,22.303c-6.036,3.869-13.962-0.466-13.962-7.635v-44.607
	c0-7.169,7.926-11.504,13.962-7.635l34.797,22.303C311.858,254.933,311.858,263.067,306.292,266.635z"/>
<path d="M458,0H110C73.607,0,44,29.607,44,66v382c0,0.414,0.033,0.819,0.082,1.219C45.767,484.122,74.687,512,110,512h348
	c5.522,0,10-4.478,10-10V10C468,4.478,463.522,0,458,0z M100,21.095v359.662c-13.893,2.121-26.365,8.599-36,17.979V66
	C64,44.069,79.429,25.674,100,21.095z M110,492c-25.364,0-46-20.636-46-46s20.636-46,46-46h46.667c5.522,0,10-4.478,10-10
	s-4.478-10-10-10H120V20h328v360H237c-5.522,0-10,4.478-10,10s4.478,10,10,10h90.641v71.217c0,3.778,2.13,7.234,5.505,8.933
	c3.377,1.7,7.42,1.349,10.455-0.902l30.04-22.294l30.04,22.294c1.758,1.304,3.853,1.97,5.961,1.97c1.533,0,3.073-0.353,4.494-1.067
	c3.375-1.698,5.505-5.154,5.505-8.933V400H448v92H110z M347.641,400h52v51.343l-20.04-14.873c-3.539-2.627-8.381-2.627-11.92,0
	l-20.04,14.873L347.641,400L347.641,400z"/>
<path d="M198,380c-2.63,0-5.21,1.069-7.07,2.93S188,387.37,188,390s1.069,5.21,2.93,7.069c1.86,1.86,4.44,2.931,7.07,2.931
	s5.21-1.07,7.069-2.931C206.93,395.21,208,392.63,208,390s-1.07-5.21-2.931-7.07C203.21,381.069,200.63,380,198,380z"/>
<path d="M113.5,439.988H256c5.522,0,10-4.478,10-10s-4.478-10-10-10H113.5c-5.522,0-10,4.478-10,10S107.978,439.988,113.5,439.988z"
	/>
<path d="M291.014,459.887H113.5c-5.522,0-10,4.478-10,10s4.478,10,10,10h177.514c5.522,0,10-4.478,10-10
	S296.536,459.887,291.014,459.887z"/>
<path d="M291.01,439.99c2.64,0,5.21-1.07,7.07-2.931c1.87-1.859,2.93-4.439,2.93-7.069c0-2.631-1.06-5.21-2.93-7.07
	c-1.86-1.86-4.431-2.93-7.07-2.93c-2.63,0-5.21,1.069-7.07,2.93c-1.859,1.86-2.93,4.439-2.93,7.07c0,2.63,1.07,5.21,2.93,7.069
	C285.81,438.92,288.38,439.99,291.01,439.99z"/>
<path d="M206.083,338h155.834C384.019,338,402,320.019,402,297.917v-77.834C402,197.981,384.019,180,361.917,180H206.083
	C183.981,180,166,197.981,166,220.083v77.834C166,320.019,183.981,338,206.083,338z M186,220.083
	c0-11.074,9.009-20.083,20.083-20.083h155.834c11.074,0,20.083,9.009,20.083,20.083v77.834c0,11.074-9.009,20.083-20.083,20.083
	H206.083C195.009,318,186,308.991,186,297.917V220.083z"/>
<path d="M257.453,298.034c2.858,1.563,6.006,2.339,9.148,2.339c3.584,0,7.161-1.011,10.29-3.016l34.797-22.304
	c5.497-3.523,8.778-9.525,8.778-16.054s-3.281-12.53-8.778-16.054l-34.797-22.304c-5.872-3.765-13.319-4.022-19.438-0.677
	c-6.119,3.347-9.92,9.757-9.92,16.73v44.607C247.533,288.277,251.334,294.688,257.453,298.034z M267.533,238.4l32.139,20.6
	l-32.139,20.6V238.4z"/>
<path d="M263,154h42.424c5.522,0,10-4.478,10-10s-4.478-10-10-10H273v-20h32.424c5.522,0,10-4.478,10-10s-4.478-10-10-10H273V74
	h32.424c5.522,0,10-4.478,10-10s-4.478-10-10-10H263c-5.522,0-10,4.478-10,10v80C253,149.522,257.478,154,263,154z"/>
<g>
</g>
<g>
</g>
<g>
</g>
<g>
</g>
<g>
</g>
<g>
</g>
<g>
</g>
<g>
</g>
<g>
</g>
<g>
</g>
<g>
</g>
<g>
</g>
<g>
</g>
<g>
</g>
<g>
</g>
</svg>
