<?xml version="1.0" encoding="iso-8859-1"?>
<!-- Generator: Adobe Illustrator 19.0.0, SVG Export Plug-In . SVG Version: 6.00 Build 0)  -->
<svg version="1.1" id="Layer_1" xmlns="http://www.w3.org/2000/svg" xmlns:xlink="http://www.w3.org/1999/xlink" x="0px" y="0px"
	 viewBox="0 0 512 512" style="enable-background:new 0 0 512 512;" xml:space="preserve">
<g>
	<path style="fill:#BAB395;" d="M441.379,105.931h-88.276c-9.754,0-17.655-7.901-17.655-17.655V0L441.379,105.931z"/>
	<path style="fill:#F3EDBF;" d="M441.379,105.931h-88.276c-9.754,0-17.655-7.901-17.655-17.655V0H88.276
		c-9.754,0-17.655,7.901-17.655,17.655v476.69c0,9.754,7.901,17.655,17.655,17.655h335.448c9.754,0,17.655-7.901,17.655-17.655
		V105.931z"/>
	<g>
		<path style="fill:#556080;" d="M229.517,194.207c-2.26,0-4.52-0.865-6.241-2.586l-17.655-17.655
			c-3.452-3.452-3.452-9.031,0-12.482s9.031-3.452,12.482,0l17.655,17.655c3.452,3.452,3.452,9.031,0,12.482
			C234.037,193.342,231.777,194.207,229.517,194.207"/>
		<path style="fill:#556080;" d="M282.483,194.207c-2.26,0-4.52-0.865-6.241-2.586c-3.452-3.452-3.452-9.031,0-12.482l17.655-17.655
			c3.452-3.452,9.031-3.452,12.482,0c3.452,3.452,3.452,9.031,0,12.482l-17.655,17.655
			C287.002,193.342,284.743,194.207,282.483,194.207"/>
		<path style="fill:#556080;" d="M194.198,256c-1.677,0-3.381-0.477-4.89-1.483l-24.258-16.172h-14.98
			c-4.882,0-8.828-3.955-8.828-8.828s3.946-8.828,8.828-8.828h20.33l28.707,19.138c4.061,2.701,5.155,8.183,2.445,12.244
			C199.857,254.623,197.049,256,194.198,256"/>
		<path style="fill:#556080;" d="M132.405,326.621c-1.677,0-3.381-0.477-4.89-1.483c-4.061-2.701-5.155-8.183-2.445-12.244
			l20.277-30.411h40.033c4.882,0,8.828,3.955,8.828,8.828c0,4.873-3.946,8.828-8.828,8.828h-30.588l-15.033,22.554
			C138.063,325.244,135.256,326.621,132.405,326.621"/>
		<path style="fill:#556080;" d="M158.888,388.414c-1.677,0-3.381-0.477-4.89-1.483c-4.061-2.701-5.155-8.183-2.445-12.244
			l20.277-30.411h31.206c4.882,0,8.828,3.955,8.828,8.828c0,4.873-3.946,8.828-8.828,8.828h-21.76l-15.033,22.554
			C164.546,387.037,161.739,388.414,158.888,388.414"/>
		<path style="fill:#556080;" d="M317.802,256c-2.851,0-5.658-1.377-7.353-3.928c-2.71-4.061-1.615-9.543,2.445-12.244
			l28.707-19.138h20.33c4.882,0,8.828,3.955,8.828,8.828s-3.946,8.828-8.828,8.828h-14.98l-24.258,16.172
			C321.183,255.523,319.479,256,317.802,256"/>
		<path style="fill:#556080;" d="M379.595,326.621c-2.851,0-5.658-1.377-7.353-3.928l-15.033-22.554h-30.588
			c-4.882,0-8.828-3.955-8.828-8.828c0-4.873,3.946-8.828,8.828-8.828h40.033l20.277,30.411c2.71,4.061,1.615,9.543-2.445,12.244
			C382.976,326.144,381.272,326.621,379.595,326.621"/>
		<path style="fill:#556080;" d="M353.112,388.414c-2.851,0-5.658-1.377-7.353-3.928l-15.033-22.554h-21.76
			c-4.882,0-8.828-3.955-8.828-8.828c0-4.873,3.946-8.828,8.828-8.828h31.206l20.277,30.411c2.71,4.061,1.615,9.543-2.445,12.244
			C356.493,387.937,354.79,388.414,353.112,388.414"/>
	</g>
	<g>
		<path style="fill:#BAB395;" d="M203.034,97.103h-61.793c-4.882,0-8.828-3.955-8.828-8.828c0-4.873,3.946-8.828,8.828-8.828h61.793
			c4.882,0,8.828,3.955,8.828,8.828C211.862,93.149,207.916,97.103,203.034,97.103"/>
		<path style="fill:#BAB395;" d="M158.897,132.414h-44.138c-4.882,0-8.828-3.955-8.828-8.828s3.946-8.828,8.828-8.828h44.138
			c4.882,0,8.828,3.955,8.828,8.828S163.778,132.414,158.897,132.414"/>
		<path style="fill:#BAB395;" d="M203.034,132.414h-8.828c-4.882,0-8.828-3.955-8.828-8.828s3.946-8.828,8.828-8.828h8.828
			c4.882,0,8.828,3.955,8.828,8.828S207.916,132.414,203.034,132.414"/>
		<path style="fill:#BAB395;" d="M397.241,441.379h-61.793c-4.882,0-8.828-3.955-8.828-8.828s3.946-8.828,8.828-8.828h61.793
			c4.882,0,8.828,3.955,8.828,8.828S402.123,441.379,397.241,441.379"/>
		<path style="fill:#BAB395;" d="M353.103,476.69h-44.138c-4.882,0-8.828-3.955-8.828-8.828s3.946-8.828,8.828-8.828h44.138
			c4.882,0,8.828,3.955,8.828,8.828S357.985,476.69,353.103,476.69"/>
		<path style="fill:#BAB395;" d="M397.241,476.69h-8.828c-4.882,0-8.828-3.955-8.828-8.828s3.946-8.828,8.828-8.828h8.828
			c4.882,0,8.828,3.955,8.828,8.828S402.123,476.69,397.241,476.69"/>
	</g>
	<path style="fill:#556080;" d="M280.246,186.168c-13.594-12.773-34.895-12.773-48.49,0c-10.266,9.649-19.889,22.025-19.889,34.525
		c0,0,3.31,44.138,44.138,44.138s44.138-44.138,44.138-44.138C300.143,208.193,290.512,195.808,280.246,186.168"/>
	<path style="fill:#F0C419;" d="M326.624,300.138c0-44.456-15.307-67.231-22.643-75.599c-1.103-1.262-2.454-2.225-3.946-2.869
		c-0.733,6.215-6.63,43.158-44.032,43.158s-43.299-36.943-44.032-43.158c-1.492,0.644-2.842,1.607-3.946,2.869
		c-7.336,8.369-22.643,31.144-22.643,75.599c0,0-1.103,34.207,35.31,70.621l5.376,5.376c16.534,16.534,43.335,16.534,59.869,0
		l5.376-5.376C327.728,334.345,326.624,300.138,326.624,300.138"/>
</g>
<g>
</g>
<g>
</g>
<g>
</g>
<g>
</g>
<g>
</g>
<g>
</g>
<g>
</g>
<g>
</g>
<g>
</g>
<g>
</g>
<g>
</g>
<g>
</g>
<g>
</g>
<g>
</g>
<g>
</g>
</svg>
