<?xml version="1.0" encoding="iso-8859-1"?>
<!-- Generator: Adobe Illustrator 19.0.0, SVG Export Plug-In . SVG Version: 6.00 Build 0)  -->
<svg version="1.1" id="Capa_1" xmlns="http://www.w3.org/2000/svg" xmlns:xlink="http://www.w3.org/1999/xlink" x="0px" y="0px"
	 viewBox="0 0 469.333 469.333" style="enable-background:new 0 0 469.333 469.333;" xml:space="preserve">
<path style="fill:#303C42;" d="M467.38,260.858l0.161-0.108l-40.875-61.313v-82.104c0-2.833-1.125-5.542-3.125-7.542L316.875,3.125
	c-2-2-4.708-3.125-7.542-3.125h-224C61.813,0,42.667,19.135,42.667,42.667v156.771L1.792,260.75l0.161,0.108
	C0.82,262.552,0,264.473,0,266.667v160c0,23.531,19.146,42.667,42.667,42.667h384c23.521,0,42.667-19.135,42.667-42.667v-160
	C469.333,264.473,468.513,262.552,467.38,260.858z"/>
<polygon style="fill:#8D6E63;" points="438.736,256 426.667,256 426.667,237.896 "/>
<path style="fill:#E6E6E6;" d="M320,36.417l70.25,70.25h-48.917c-11.771,0-21.333-9.573-21.333-21.333V36.417z"/>
<path style="fill:#FFFFFF;" d="M85.333,21.333h213.333v64c0,23.531,19.146,42.667,42.667,42.667h64v128H384
	c-23.521,0-42.667,19.135-42.667,42.667c0,11.76-9.563,21.333-21.333,21.333H149.333C137.563,320,128,310.427,128,298.667
	C128,275.135,108.854,256,85.333,256H64V42.667C64,30.906,73.563,21.333,85.333,21.333z"/>
<linearGradient id="SVGID_1_" gradientUnits="userSpaceOnUse" x1="-56.0365" y1="623.1511" x2="-56.0365" y2="609.1511" gradientTransform="matrix(21.3333 0 0 -21.3333 1430.1112 13315.2227)">
	<stop  offset="0" style="stop-color:#000000;stop-opacity:0"/>
	<stop  offset="0.859" style="stop-color:#000000;stop-opacity:0.06"/>
	<stop  offset="1" style="stop-color:#000000;stop-opacity:0.07"/>
</linearGradient>
<path style="fill:url(#SVGID_1_);" d="M85.333,21.333h213.333v64c0,23.531,19.146,42.667,42.667,42.667h64v128H384
	c-23.521,0-42.667,19.135-42.667,42.667c0,11.76-9.563,21.333-21.333,21.333H149.333C137.563,320,128,310.427,128,298.667
	C128,275.135,108.854,256,85.333,256H64V42.667C64,30.906,73.563,21.333,85.333,21.333z"/>
<g>
	<polygon style="fill:#8D6E63;" points="42.667,256 30.598,256 42.667,237.896 	"/>
	<path style="fill:#8D6E63;" d="M448,426.667c0,11.76-9.563,21.333-21.333,21.333h-384c-11.771,0-21.333-9.573-21.333-21.333
		V277.333h64c11.771,0,21.333,9.573,21.333,21.333c0,23.531,19.146,42.667,42.667,42.667H320c23.521,0,42.667-19.135,42.667-42.667
		c0-11.76,9.563-21.333,21.333-21.333h64V426.667z"/>
</g>
<g>
	<path style="fill:#303C42;" d="M138.667,170.667h192c5.896,0,10.667-4.771,10.667-10.667c0-5.896-4.771-10.667-10.667-10.667h-192
		c-5.896,0-10.667,4.771-10.667,10.667C128,165.896,132.771,170.667,138.667,170.667z"/>
	<path style="fill:#303C42;" d="M138.667,213.333h192c5.896,0,10.667-4.771,10.667-10.667S336.563,192,330.667,192h-192
		c-5.896,0-10.667,4.771-10.667,10.667S132.771,213.333,138.667,213.333z"/>
	<path style="fill:#303C42;" d="M138.667,256h106.667c5.896,0,10.667-4.771,10.667-10.667c0-5.896-4.771-10.667-10.667-10.667
		H138.667c-5.896,0-10.667,4.771-10.667,10.667C128,251.229,132.771,256,138.667,256z"/>
</g>
<linearGradient id="SVGID_2_" gradientUnits="userSpaceOnUse" x1="-61.0365" y1="616.1511" x2="-47.3296" y2="602.4442" gradientTransform="matrix(21.3333 0 0 -21.3333 1430.1112 13315.2227)">
	<stop  offset="0" style="stop-color:#000000;stop-opacity:0.1"/>
	<stop  offset="1" style="stop-color:#000000;stop-opacity:0"/>
</linearGradient>
<path style="fill:url(#SVGID_2_);" d="M426.667,448c11.771,0,21.333-9.573,21.333-21.333V277.333h-64
	c-11.771,0-21.333,9.573-21.333,21.333c0,23.531-19.146,42.667-42.667,42.667H149.333c-23.521,0-42.667-19.135-42.667-42.667
	c0-11.76-9.563-21.333-21.333-21.333h-64L192,448H426.667z"/>
<linearGradient id="SVGID_3_" gradientUnits="userSpaceOnUse" x1="-51.4282" y1="619.6327" x2="-47.0815" y2="615.285" gradientTransform="matrix(21.3333 0 0 -21.3333 1430.1112 13315.2227)">
	<stop  offset="0" style="stop-color:#000000;stop-opacity:0.1"/>
	<stop  offset="1" style="stop-color:#000000;stop-opacity:0"/>
</linearGradient>
<path style="fill:url(#SVGID_3_);" d="M405.333,209.51V128h-64c-11.056,0-21.052-4.335-28.641-11.26l-0.099,0.03L405.333,209.51z"/>
<linearGradient id="SVGID_4_" gradientUnits="userSpaceOnUse" x1="-67.567" y1="617.1695" x2="-43.9056" y2="606.1318" gradientTransform="matrix(21.3333 0 0 -21.3333 1430.1112 13315.2227)">
	<stop  offset="0" style="stop-color:#FFFFFF;stop-opacity:0.2"/>
	<stop  offset="1" style="stop-color:#FFFFFF;stop-opacity:0"/>
</linearGradient>
<path style="fill:url(#SVGID_4_);" d="M467.38,260.858l0.161-0.108l-40.875-61.313v-82.104c0-2.833-1.125-5.542-3.125-7.542
	L316.875,3.125c-2-2-4.708-3.125-7.542-3.125h-224C61.813,0,42.667,19.135,42.667,42.667v156.771L1.792,260.75l0.161,0.108
	C0.82,262.552,0,264.473,0,266.667v160c0,23.531,19.146,42.667,42.667,42.667h384c23.521,0,42.667-19.135,42.667-42.667v-160
	C469.333,264.473,468.513,262.552,467.38,260.858z"/>
<g>
</g>
<g>
</g>
<g>
</g>
<g>
</g>
<g>
</g>
<g>
</g>
<g>
</g>
<g>
</g>
<g>
</g>
<g>
</g>
<g>
</g>
<g>
</g>
<g>
</g>
<g>
</g>
<g>
</g>
</svg>
