<?xml version="1.0" encoding="iso-8859-1"?>
<!-- Generator: Adobe Illustrator 19.0.0, SVG Export Plug-In . SVG Version: 6.00 Build 0)  -->
<svg version="1.1" id="Capa_1" xmlns="http://www.w3.org/2000/svg" xmlns:xlink="http://www.w3.org/1999/xlink" x="0px" y="0px"
	 viewBox="0 0 512 512" style="enable-background:new 0 0 512 512;" xml:space="preserve">
<path style="fill:#E0E0E3;" d="M512,46.365v419.269c0,23.156-18.767,41.923-41.923,41.923H41.923C18.767,507.558,0,488.79,0,465.635
	V46.365C0,23.209,18.767,4.442,41.923,4.442h428.153C493.233,4.442,512,23.209,512,46.365z"/>
<g>
	<path style="fill:#D1D1D1;" d="M512,426.625v39.007c0,23.163-18.763,41.926-41.926,41.926H41.926
		C18.763,507.558,0,488.795,0,465.632v-39.007c0,23.153,18.763,41.926,41.926,41.926h428.147
		C493.237,468.552,512,449.779,512,426.625z"/>
	<rect y="121.3" style="fill:#D1D1D1;" width="512" height="33.95"/>
</g>
<path style="fill:#6B7F9E;" d="M512,46.368v74.929H0V46.368c0-0.72,0.021-1.44,0.051-2.159C1.172,22.053,19.483,4.442,41.926,4.442
	h428.147c22.444,0,40.754,17.611,41.875,39.767C511.979,44.928,512,45.648,512,46.368z"/>
<path style="fill:#798DAA;" d="M0,85.374V46.367C0,23.205,18.763,4.442,41.926,4.442h428.147C493.237,4.442,512,23.205,512,46.368
	v39.007c0-23.153-18.763-41.926-41.926-41.926H41.926C18.763,43.448,0,62.221,0,85.374z"/>
<path style="fill:#00DDC0;" d="M132.99,279.395H76.925c-4.552,0-8.241-3.69-8.241-8.241v-56.065c0-4.552,3.69-8.241,8.241-8.241
	h56.065c4.552,0,8.241,3.69,8.241,8.241v56.065C141.231,275.706,137.542,279.395,132.99,279.395z"/>
<g>
	<path style="fill:#FF3C63;" d="M284.033,279.395h-56.065c-4.552,0-8.241-3.69-8.241-8.241v-56.065c0-4.552,3.69-8.241,8.241-8.241
		h56.065c4.552,0,8.241,3.69,8.241,8.241v56.065C292.274,275.706,288.584,279.395,284.033,279.395z"/>
	<path style="fill:#FF3C63;" d="M435.075,279.395H379.01c-4.552,0-8.241-3.69-8.241-8.241v-56.065c0-4.552,3.69-8.241,8.241-8.241
		h56.065c4.552,0,8.241,3.69,8.241,8.241v56.065C443.317,275.706,439.627,279.395,435.075,279.395z"/>
</g>
<g>
	<path style="fill:#586C89;" d="M141.231,335.725H68.683c-4.267,0-7.726-3.459-7.726-7.726s3.459-7.726,7.726-7.726h72.548
		c4.267,0,7.726,3.459,7.726,7.726C148.958,332.266,145.498,335.725,141.231,335.725z"/>
	<path style="fill:#586C89;" d="M141.231,375.262H68.683c-4.267,0-7.726-3.459-7.726-7.726s3.459-7.726,7.726-7.726h72.548
		c4.267,0,7.726,3.459,7.726,7.726C148.958,371.803,145.498,375.262,141.231,375.262z"/>
	<path style="fill:#586C89;" d="M141.231,414.799H68.683c-4.267,0-7.726-3.459-7.726-7.726s3.459-7.726,7.726-7.726h72.548
		c4.267,0,7.726,3.459,7.726,7.726S145.498,414.799,141.231,414.799z"/>
	<path style="fill:#586C89;" d="M292.274,335.725h-72.548c-4.267,0-7.726-3.459-7.726-7.726s3.459-7.726,7.726-7.726h72.548
		c4.267,0,7.726,3.459,7.726,7.726S296.541,335.725,292.274,335.725z"/>
	<path style="fill:#586C89;" d="M292.274,375.262h-72.548c-4.267,0-7.726-3.459-7.726-7.726s3.459-7.726,7.726-7.726h72.548
		c4.267,0,7.726,3.459,7.726,7.726C300,371.803,296.541,375.262,292.274,375.262z"/>
	<path style="fill:#586C89;" d="M292.274,414.799h-72.548c-4.267,0-7.726-3.459-7.726-7.726s3.459-7.726,7.726-7.726h72.548
		c4.267,0,7.726,3.459,7.726,7.726S296.541,414.799,292.274,414.799z"/>
	<path style="fill:#586C89;" d="M443.317,335.725h-72.548c-4.267,0-7.726-3.459-7.726-7.726s3.459-7.726,7.726-7.726h72.548
		c4.267,0,7.726,3.459,7.726,7.726S447.584,335.725,443.317,335.725z"/>
	<path style="fill:#586C89;" d="M443.317,375.262h-72.548c-4.267,0-7.726-3.459-7.726-7.726s3.459-7.726,7.726-7.726h72.548
		c4.267,0,7.726,3.459,7.726,7.726C451.043,371.803,447.584,375.262,443.317,375.262z"/>
	<path style="fill:#586C89;" d="M443.317,414.799h-72.548c-4.267,0-7.726-3.459-7.726-7.726s3.459-7.726,7.726-7.726h72.548
		c4.267,0,7.726,3.459,7.726,7.726S447.584,414.799,443.317,414.799z"/>
	<path style="fill:#586C89;" d="M98.153,259.282c-1.977,0-3.955-0.755-5.463-2.263l-29.47-29.47c-3.018-3.017-3.018-7.909,0-10.927
		c3.017-3.017,7.909-3.017,10.927,0l24.007,24.007l60.257-60.257c3.017-3.017,7.909-3.017,10.927,0s3.018,7.909,0,10.927
		l-65.72,65.72C102.108,258.527,100.131,259.282,98.153,259.282z"/>
</g>
<g>
</g>
<g>
</g>
<g>
</g>
<g>
</g>
<g>
</g>
<g>
</g>
<g>
</g>
<g>
</g>
<g>
</g>
<g>
</g>
<g>
</g>
<g>
</g>
<g>
</g>
<g>
</g>
<g>
</g>
</svg>
