<?xml version="1.0" encoding="iso-8859-1"?>
<!-- Generator: Adobe Illustrator 19.0.0, SVG Export Plug-In . SVG Version: 6.00 Build 0)  -->
<svg version="1.1" id="Capa_1" xmlns="http://www.w3.org/2000/svg" xmlns:xlink="http://www.w3.org/1999/xlink" x="0px" y="0px"
	 viewBox="0 0 512 512" style="enable-background:new 0 0 512 512;" xml:space="preserve">
<g>
	<path style="fill:#FFBE35;" d="M160,512L5.357,449.875C2.149,448.752,0,445.724,0,442.324V11.816c0-5.66,5.716-9.53,10.971-7.428
		L160,64V512z"/>
	<path style="fill:#FFBE35;" d="M501.15,507.863L352,451V0l154.643,62.125c3.209,1.123,5.357,4.151,5.357,7.551v430.712
		C512,505.993,506.387,509.86,501.15,507.863z"/>
</g>
<polygon style="fill:#FFDE5E;" points="352,451 160,512 160,64 352,0 "/>
<polygon style="fill:#EEEFF2;" points="160,480 352,416 352,32 160,96 "/>
<g>
	<path style="fill:#CCCFD9;" d="M33.256,429.19L160,480V96L34.702,49.013C33.395,48.523,32,49.49,32,50.886v376.448
		C32,428.151,32.497,428.886,33.256,429.19z"/>
	<path style="fill:#CCCFD9;" d="M352,416l125.335,44.169c1.301,0.458,2.665-0.507,2.665-1.886V90.609
		c0-0.788-0.463-1.503-1.183-1.825L352,32V416z"/>
</g>
<path style="fill:#3A9FDE;" d="M288,112c-52.935,0-96,43.065-96,96c0,75.209,87.567,139.759,91.295,142.47
	c2.774,2.018,6.636,2.018,9.41,0C296.433,347.759,384,283.209,384,208C384,155.065,340.935,112,288,112z"/>
<path style="fill:#298ECC;" d="M216,200.017c0-37.889,22.065-70.717,54.019-86.321C225.65,122.139,192,161.21,192,208
	c0,75.209,87.567,139.759,91.295,142.47c2.774,2.018,6.636,2.018,9.41,0c0.798-0.58,5.443-4.001,12.24-9.744
	C290.347,329.566,216,269.317,216,200.017z"/>
<path style="fill:#71C2F5;" d="M288,152c-30.879,0-56,25.122-56,56s25.121,56,56,56s56-25.122,56-56S318.879,152,288,152z"/>
<path style="fill:#556080;" d="M315.578,384.845L305.889,380l9.689-4.845c3.951-1.976,5.553-6.781,3.577-10.733
	s-6.781-5.553-10.733-3.578L288,371.056l-20.422-10.211c-3.953-1.975-8.758-0.375-10.733,3.578
	c-1.976,3.952-0.374,8.757,3.577,10.733l9.689,4.845l-9.689,4.845c-3.658,1.829-5.374,6.291-3.861,10.095
	c1.71,4.299,6.866,6.291,11.017,4.215L288,388.944l20.422,10.211c4.144,2.07,9.317,0.09,11.017-4.215
	C320.944,391.132,319.242,386.677,315.578,384.845z"/>
<g>
</g>
<g>
</g>
<g>
</g>
<g>
</g>
<g>
</g>
<g>
</g>
<g>
</g>
<g>
</g>
<g>
</g>
<g>
</g>
<g>
</g>
<g>
</g>
<g>
</g>
<g>
</g>
<g>
</g>
</svg>
