<?xml version="1.0" encoding="iso-8859-1"?>
<!-- Generator: Adobe Illustrator 19.0.0, SVG Export Plug-In . SVG Version: 6.00 Build 0)  -->
<svg version="1.1" id="Capa_1" xmlns="http://www.w3.org/2000/svg" xmlns:xlink="http://www.w3.org/1999/xlink" x="0px" y="0px"
	 viewBox="0 0 512 512" style="enable-background:new 0 0 512 512;" xml:space="preserve">
<path style="fill:#FFB655;" d="M484.5,474.31h-457c-7.81-7.81-12.19-12.19-20-20V237.18c7.81-7.81,12.19-12.19,20-20h457
	c7.81,7.81,12.19,12.19,20,20v217.13C496.69,462.12,492.31,466.499,484.5,474.31z"/>
<g>
	<circle style="fill:#FF7956;" cx="171.22" cy="345.75" r="87"/>
	<circle style="fill:#FF7956;" cx="400.78" cy="345.75" r="87"/>
</g>
<circle style="fill:#D1E7F8;" cx="141.22" cy="345.75" r="87"/>
<circle style="fill:#787680;" cx="141.22" cy="345.75" r="11.333"/>
<circle style="fill:#D1E7F8;" cx="370.78" cy="345.75" r="87"/>
<circle style="fill:#787680;" cx="370.78" cy="345.75" r="11.333"/>
<polygon style="fill:#FFFFFF;" points="175.421,37.69 175.421,146.112 232.922,146.112 256,169.19 279.078,146.112 336.579,146.112 
	336.579,37.69 "/>
<path style="fill:#D8D7DA;" d="M287.604,125.745v-12.878c0-3.281,2.659-5.94,5.94-5.94h3.843h-0.627
	c9.555,0,17.177-8.273,16.094-18.047c-0.823-7.435-6.842-13.439-14.278-14.249c-1.958-0.213-3.855-0.077-5.637,0.354
	c-2.04-7.441-8.851-12.908-16.939-12.908c-8.088,0-14.899,5.468-16.939,12.908c-1.782-0.431-3.679-0.568-5.637-0.354
	c-7.437,0.809-13.455,6.814-14.278,14.249c-1.083,9.774,6.54,18.047,16.094,18.047h3.843c3.281,0,5.94,2.659,5.94,5.94v12.878
	H287.604z"/>
<path style="fill:#D1E7F8;" d="M267.604,125.745v-12.878c0-3.281,2.659-5.94,5.94-5.94h3.843h-0.627
	c9.555,0,17.177-8.273,16.094-18.047c-0.824-7.435-6.842-13.439-14.278-14.249c-1.958-0.213-3.855-0.077-5.637,0.354
	c-2.04-7.441-8.851-12.908-16.939-12.908c-8.088,0-14.899,5.468-16.939,12.908c-1.782-0.431-3.679-0.568-5.637-0.354
	c-7.437,0.809-13.455,6.814-14.278,14.249c-1.083,9.774,6.54,18.047,16.094,18.047h3.843c3.281,0,5.94,2.659,5.94,5.94v12.878
	H267.604z"/>
<polygon style="fill:#FF7956;" points="37.5,237.18 57.5,217.18 27.5,217.18 7.5,237.18 7.5,454.31 27.5,474.31 57.5,474.31 
	37.5,454.31 "/>
<g>
	<path style="fill:#9BC9FF;" d="M84.222,345.745c0-42.934,31.1-78.603,72-85.711c-4.873-0.847-9.885-1.289-15-1.289
		c-48.049,0-87,38.951-87,87s38.951,87,87,87c5.115,0,10.127-0.442,15-1.289C115.321,424.348,84.222,388.679,84.222,345.745z"/>
	<path style="fill:#9BC9FF;" d="M313.778,345.745c0-42.934,31.1-78.603,72-85.711c-4.873-0.847-9.885-1.289-15-1.289
		c-48.049,0-87,38.951-87,87s38.951,87,87,87c5.115,0,10.127-0.442,15-1.289C344.878,424.348,313.778,388.679,313.778,345.745z"/>
</g>
<g>
	<rect x="175.42" y="37.69" style="fill:#D8D7DA;" width="30" height="108.42"/>
	<polygon style="fill:#D8D7DA;" points="262.922,146.112 232.922,146.112 256,169.19 271,154.19 	"/>
</g>
<rect x="61.49" y="444.25" width="15" height="15"/>
<rect x="36.492" y="444.25" width="15" height="15"/>
<rect x="86.49" y="444.25" width="15" height="15"/>
<rect x="429.98" y="444.25" width="15" height="15"/>
<rect x="404.98" y="444.25" width="15" height="15"/>
<rect x="454.98" y="444.25" width="15" height="15"/>
<rect x="379.98" y="444.25" width="15" height="15"/>
<path d="M487.606,209.681H24.394L0,234.074v223.342l24.394,24.394h463.213L512,457.416V234.074L487.606,209.681z M481.394,466.81
	H30.606L15,451.203v-17.958h39.222v-15H15v-152h47.305v-15H15v-10.958l15.606-15.606h450.787L497,240.287v177.958h-34v15h34v17.958
	L481.394,466.81z"/>
<path d="M231.121,316.59H258.5v-15h-33.743c-15.879-29.92-47.367-50.345-83.535-50.345s-67.656,20.424-83.535,50.345H26.5v15h24.823
	c-2.986,9.187-4.601,18.986-4.601,29.155c0,52.107,42.393,94.5,94.5,94.5s94.5-42.393,94.5-94.5
	C235.722,335.576,234.107,325.776,231.121,316.59z M141.222,425.245c-43.837,0-79.5-35.663-79.5-79.5s35.663-79.5,79.5-79.5
	s79.5,35.663,79.5,79.5S185.059,425.245,141.222,425.245z"/>
<path d="M101.741,306.266l-10.605-10.607c-3.971,3.97-7.458,8.39-10.363,13.138l12.793,7.83
	C95.855,312.887,98.605,309.4,101.741,306.266z"/>
<path d="M89.583,324.472l-13.873-5.707c-2.125,5.167-3.635,10.593-4.488,16.126l14.824,2.287
	C86.719,332.815,87.908,328.541,89.583,324.472z"/>
<path d="M85.39,345.968l-15,0.059c0.021,5.593,0.706,11.18,2.033,16.606l14.57-3.563C85.946,354.789,85.407,350.381,85.39,345.968z"
	/>
<g>
	<path style="fill:#FFFFFF;" d="M141.211,289.912c14.921,0,28.945,5.808,39.49,16.353c10.487,10.488,16.295,24.431,16.354,39.259
		l15-0.059c-0.074-18.813-7.442-36.501-20.746-49.807c-13.379-13.378-31.171-20.746-50.098-20.746
		c-11.908,0-23.695,3.018-34.085,8.727l7.225,13.146C122.532,292.289,131.821,289.912,141.211,289.912z"/>
	<path style="fill:#FFFFFF;" d="M180.701,385.225l10.607,10.607c3.969-3.97,7.455-8.389,10.362-13.136l-12.793-7.834
		C186.588,378.604,183.837,382.09,180.701,385.225z"/>
	<path style="fill:#FFFFFF;" d="M192.861,367.019l13.873,5.707c2.124-5.165,3.635-10.59,4.489-16.125l-14.824-2.289
		C195.726,358.675,194.535,362.95,192.861,367.019z"/>
</g>
<path d="M141.222,326.912c-10.385,0-18.833,8.448-18.833,18.833c0,2.439,0.466,4.771,1.314,6.913l-21.395,21.396l10.607,10.605
	l21.394-21.395c2.141,0.848,4.473,1.314,6.912,1.314c10.385,0,18.833-8.448,18.833-18.833S151.606,326.912,141.222,326.912z
	 M141.222,349.578c-2.113,0-3.833-1.72-3.833-3.833s1.72-3.833,3.833-3.833s3.833,1.72,3.833,3.833S143.335,349.578,141.222,349.578
	z"/>
<path d="M465.278,345.745c0-52.107-42.393-94.5-94.5-94.5s-94.5,42.393-94.5,94.5c0,29.09,13.212,55.151,33.95,72.5h-82.007v15
	h106.86c11.019,4.512,23.073,7,35.697,7C422.886,440.245,465.278,397.853,465.278,345.745z M291.278,345.745
	c0-43.837,35.663-79.5,79.5-79.5s79.5,35.663,79.5,79.5s-35.663,79.5-79.5,79.5S291.278,389.582,291.278,345.745z"/>
<path d="M370.778,416.578v-15c-17.908,0-34.858-8.689-45.341-23.243l-12.172,8.766C326.56,405.559,348.06,416.578,370.778,416.578z"
	/>
<path d="M96.492,378.335l-12.172,8.766c13.293,18.458,34.793,29.478,57.513,29.478v-15
	C123.924,401.578,106.974,392.889,96.492,378.335z"/>
<path d="M331.298,306.266l-10.605-10.607c-3.971,3.97-7.458,8.39-10.363,13.138l12.793,7.83
	C325.412,312.887,328.162,309.4,331.298,306.266z"/>
<path d="M314.946,345.968l-15,0.059c0.021,5.593,0.706,11.18,2.033,16.606l14.57-3.563
	C315.503,354.789,314.964,350.381,314.946,345.968z"/>
<path d="M319.14,324.472l-13.873-5.707c-2.125,5.167-3.635,10.593-4.488,16.126l14.824,2.287
	C316.275,332.815,317.465,328.541,319.14,324.472z"/>
<g>
	<path style="fill:#FFFFFF;" d="M422.418,367.019l13.873,5.707c2.124-5.165,3.635-10.59,4.489-16.125l-14.824-2.289
		C425.282,358.675,424.092,362.95,422.418,367.019z"/>
	<path style="fill:#FFFFFF;" d="M410.258,385.225l10.607,10.607c3.969-3.97,7.455-8.389,10.362-13.136l-12.793-7.834
		C416.145,378.604,413.394,382.09,410.258,385.225z"/>
	<path style="fill:#FFFFFF;" d="M370.768,289.912c14.921,0,28.945,5.808,39.49,16.353c10.487,10.488,16.295,24.431,16.354,39.259
		l15-0.059c-0.074-18.813-7.442-36.501-20.746-49.807c-13.379-13.378-31.171-20.746-50.098-20.746
		c-11.908,0-23.695,3.018-34.085,8.727l7.225,13.146C352.089,292.289,361.378,289.912,370.768,289.912z"/>
</g>
<path d="M398.085,307.831l-20.394,20.395c-2.141-0.848-4.473-1.314-6.913-1.314c-10.385,0-18.833,8.448-18.833,18.833
	s8.448,18.833,18.833,18.833s18.833-8.448,18.833-18.833c0-2.439-0.466-4.771-1.314-6.913l20.395-20.396L398.085,307.831z
	 M370.778,349.578c-2.113,0-3.833-1.72-3.833-3.833s1.72-3.833,3.833-3.833s3.833,1.72,3.833,3.833S372.892,349.578,370.778,349.578
	z"/>
<g>
	<rect x="474.17" y="258.75" style="fill:#FFFFFF;" width="15" height="15"/>
	<rect x="474.17" y="283.75" style="fill:#FFFFFF;" width="15" height="15"/>
	<rect x="474.17" y="308.75" style="fill:#FFFFFF;" width="15" height="79"/>
	<rect x="192" y="242.25" style="fill:#FFFFFF;" width="74.72" height="15"/>
	<rect x="301.72" y="242.25" style="fill:#FFFFFF;" width="15" height="15"/>
	<rect x="276.72" y="242.25" style="fill:#FFFFFF;" width="15" height="15"/>
</g>
<path d="M256,179.797l26.185-26.185h61.895V30.19H167.921v123.422h61.895L256,179.797z M182.921,45.19h146.158v93.422h-53.107
	L256,158.584l-19.972-19.972h-53.107V45.19z"/>
<path d="M237.523,125.745h15v-12.878c0-7.41-6.029-13.439-13.44-13.439h-3.844c-2.47,0-4.833-1.057-6.482-2.899
	c-1.672-1.867-2.438-4.289-2.157-6.822c0.434-3.916,3.716-7.191,7.634-7.618c1.045-0.112,2.077-0.051,3.065,0.188l7.071,1.709
	l1.924-7.016c1.193-4.353,5.185-7.392,9.706-7.392s8.513,3.039,9.706,7.392l1.924,7.016l7.071-1.709
	c0.988-0.239,2.02-0.301,3.064-0.188c3.919,0.427,7.201,3.702,7.635,7.619c0.28,2.532-0.485,4.954-2.157,6.821
	c-1.649,1.843-4.013,2.899-6.482,2.899h-3.217c-7.41,0-13.439,6.029-13.439,13.439v12.878h15v-11.317h2.283v-0.009
	c6.502-0.172,12.68-3.024,17.031-7.886c4.489-5.014,6.636-11.749,5.89-18.478c-1.208-10.91-10.006-19.691-20.921-20.88
	c-0.572-0.063-1.145-0.104-1.715-0.126c-4.41-7.566-12.615-12.472-21.673-12.472s-17.263,4.905-21.673,12.472
	c-0.571,0.021-1.144,0.063-1.716,0.126c-10.914,1.188-19.712,9.97-20.92,20.879c-0.746,6.729,1.4,13.465,5.89,18.479
	c4.491,5.018,10.928,7.895,17.658,7.895h2.284L237.523,125.745L237.523,125.745z"/>
<g>
</g>
<g>
</g>
<g>
</g>
<g>
</g>
<g>
</g>
<g>
</g>
<g>
</g>
<g>
</g>
<g>
</g>
<g>
</g>
<g>
</g>
<g>
</g>
<g>
</g>
<g>
</g>
<g>
</g>
</svg>
