<?xml version="1.0" encoding="iso-8859-1"?>
<!-- Generator: Adobe Illustrator 19.0.0, SVG Export Plug-In . SVG Version: 6.00 Build 0)  -->
<svg version="1.1" id="Capa_1" xmlns="http://www.w3.org/2000/svg" xmlns:xlink="http://www.w3.org/1999/xlink" x="0px" y="0px"
	 viewBox="0 0 512 512" style="enable-background:new 0 0 512 512;" xml:space="preserve">
<path style="fill:#FFDA2D;" d="M392.521,512H119.479c-14.803,0-26.803-12-26.803-26.803V89.648c0-14.803,12-26.803,26.803-26.803
	h273.043c14.803,0,26.803,12,26.803,26.803v395.549C419.324,500,407.324,512,392.521,512z"/>
<rect x="173.47" y="62.845" style="fill:#FFCE00;" width="166.33" height="31.2"/>
<path style="fill:#E0E0E3;" d="M387.143,102.277v367.366c0,4.543-3.688,8.242-8.242,8.242H134.376c-4.553,0-8.242-3.698-8.242-8.242
	V102.277c0-4.543,3.688-8.242,8.242-8.242h244.526C383.455,94.036,387.143,97.734,387.143,102.277z"/>
<g>
	<path style="fill:#D1D1D1;" d="M387.143,440.756v28.887c0,4.543-3.688,8.242-8.242,8.242H134.376c-4.553,0-8.242-3.698-8.242-8.242
		v-28.887H387.143z"/>
	<path style="fill:#D1D1D1;" d="M329.503,135.623H183.776c-5.69,0-10.302-4.612-10.302-10.302v-31.28h166.331v31.281
		C339.805,131.011,335.193,135.623,329.503,135.623z"/>
</g>
<path style="fill:#6B7F9E;" d="M282.229,51.179c4.358-5.802,6.791-13.132,6.345-21.044c-0.899-15.943-13.739-28.96-29.669-30.057
	c-18.69-1.287-34.252,13.493-34.252,31.909c0,7.201,2.381,13.846,6.397,19.192h-21.608c-4.552,0-8.242,3.69-8.242,8.242v43.652
	c0,4.552,3.69,8.242,8.242,8.242h94.395c4.552,0,8.242-3.69,8.242-8.242V59.42c0-4.552-3.69-8.242-8.242-8.242h-21.608V51.179z"/>
<path style="fill:#798DAA;" d="M288.626,31.987c0,3.595-0.589,7.037-1.676,10.249c-4.261-12.654-16.224-21.764-30.31-21.764
	s-26.05,9.11-30.311,21.764c-1.088-3.211-1.676-6.653-1.676-10.249C224.653,14.317,238.97,0,256.64,0
	C274.309,0,288.626,14.317,288.626,31.987z"/>
<path style="fill:#586C89;" d="M303.837,111.314h-94.395c-4.552,0-8.242-3.69-8.242-8.242V85.511h110.878v17.561
	C312.079,107.624,308.389,111.314,303.837,111.314z"/>
<circle style="fill:#00DDC0;" cx="187.12" cy="192.48" r="16.71"/>
<g>
	<path style="fill:#586C89;" d="M275.832,183.5h-32.414c-4.268,0-7.726-3.459-7.726-7.726s3.459-7.726,7.726-7.726h32.414
		c4.268,0,7.726,3.459,7.726,7.726C283.559,180.04,280.1,183.5,275.832,183.5z"/>
	<path style="fill:#586C89;" d="M339.806,216.919h-96.387c-4.268,0-7.726-3.459-7.726-7.726s3.459-7.726,7.726-7.726h96.387
		c4.268,0,7.726,3.459,7.726,7.726S344.073,216.919,339.806,216.919z"/>
</g>
<circle style="fill:#00DDC0;" cx="187.12" cy="285.96" r="16.71"/>
<g>
	<path style="fill:#586C89;" d="M275.832,276.978h-32.414c-4.268,0-7.726-3.459-7.726-7.726s3.459-7.726,7.726-7.726h32.414
		c4.268,0,7.726,3.459,7.726,7.726C283.559,273.518,280.1,276.978,275.832,276.978z"/>
	<path style="fill:#586C89;" d="M339.806,310.397h-96.387c-4.268,0-7.726-3.459-7.726-7.726s3.459-7.726,7.726-7.726h96.387
		c4.268,0,7.726,3.459,7.726,7.726S344.073,310.397,339.806,310.397z"/>
</g>
<circle style="fill:#FF3C63;" cx="187.12" cy="379.44" r="16.71"/>
<g>
	<path style="fill:#586C89;" d="M275.832,370.455h-32.414c-4.268,0-7.726-3.459-7.726-7.726s3.459-7.726,7.726-7.726h32.414
		c4.268,0,7.726,3.459,7.726,7.726C283.559,366.996,280.1,370.455,275.832,370.455z"/>
	<path style="fill:#586C89;" d="M339.806,403.875h-96.387c-4.268,0-7.726-3.459-7.726-7.726s3.459-7.726,7.726-7.726h96.387
		c4.268,0,7.726,3.459,7.726,7.726S344.073,403.875,339.806,403.875z"/>
</g>
<g>
	<path style="fill:#6B7F9E;" d="M52.668,153.064h-7.013c-4.268,0-7.726-3.459-7.726-7.726s3.459-7.726,7.726-7.726h7.013
		c4.268,0,7.726,3.459,7.726,7.726C60.395,149.605,56.936,153.064,52.668,153.064z"/>
	<path style="fill:#6B7F9E;" d="M52.668,125.789h-7.013c-4.268,0-7.726-3.459-7.726-7.726s3.459-7.726,7.726-7.726h7.013
		c4.268,0,7.726,3.459,7.726,7.726C60.395,122.329,56.936,125.789,52.668,125.789z"/>
	<path style="fill:#6B7F9E;" d="M52.668,98.514h-7.013c-4.268,0-7.726-3.459-7.726-7.726s3.459-7.726,7.726-7.726h7.013
		c4.268,0,7.726,3.459,7.726,7.726S56.936,98.514,52.668,98.514z"/>
	<path style="fill:#6B7F9E;" d="M466.345,494.323h-7.013c-4.268,0-7.726-3.459-7.726-7.726s3.459-7.726,7.726-7.726h7.013
		c4.268,0,7.726,3.459,7.726,7.726C474.071,490.863,470.612,494.323,466.345,494.323z"/>
	<path style="fill:#6B7F9E;" d="M466.345,467.047h-7.013c-4.268,0-7.726-3.459-7.726-7.726s3.459-7.726,7.726-7.726h7.013
		c4.268,0,7.726,3.459,7.726,7.726C474.071,463.588,470.612,467.047,466.345,467.047z"/>
	<path style="fill:#6B7F9E;" d="M466.345,439.772h-7.013c-4.268,0-7.726-3.459-7.726-7.726s3.459-7.726,7.726-7.726h7.013
		c4.268,0,7.726,3.459,7.726,7.726S470.612,439.772,466.345,439.772z"/>
</g>
<g>
</g>
<g>
</g>
<g>
</g>
<g>
</g>
<g>
</g>
<g>
</g>
<g>
</g>
<g>
</g>
<g>
</g>
<g>
</g>
<g>
</g>
<g>
</g>
<g>
</g>
<g>
</g>
<g>
</g>
</svg>
