<svg xmlns="http://www.w3.org/2000/svg" height="564pt" version="1.1" viewBox="0 0 564 564" width="564pt">
<g id="surface1">
<path d="M 9.398438 535.800781 C 9.398438 546.183594 17.816406 554.601562 28.199219 554.601562 L 535.800781 554.601562 C 546.183594 554.601562 554.601562 546.183594 554.601562 535.800781 L 554.601562 65.800781 L 9.398438 65.800781 Z M 282 103.398438 C 354.679688 103.398438 413.601562 162.320312 413.601562 235 C 413.601562 307.679688 354.679688 366.601562 282 366.601562 C 209.320312 366.601562 150.398438 307.679688 150.398438 235 C 150.398438 162.320312 209.320312 103.398438 282 103.398438 Z M 282 103.398438 " style=" stroke:none;fill-rule:nonzero;fill:rgb(60%,77.254902%,97.647059%);fill-opacity:1;" />
<path d="M 535.800781 9.398438 L 28.199219 9.398438 C 17.816406 9.398438 9.398438 17.816406 9.398438 28.199219 L 9.398438 65.800781 L 554.601562 65.800781 L 554.601562 28.199219 C 554.601562 17.816406 546.183594 9.398438 535.800781 9.398438 Z M 535.800781 9.398438 " style=" stroke:none;fill-rule:nonzero;fill:rgb(20%,54.117647%,95.294118%);fill-opacity:1;" />
<path d="M 282 366.601562 C 354.679688 366.601562 413.601562 307.679688 413.601562 235 C 413.601562 162.320312 354.679688 103.398438 282 103.398438 C 209.320312 103.398438 150.398438 162.320312 150.398438 235 C 150.398438 307.679688 209.320312 366.601562 282 366.601562 Z M 253.800781 169.199219 C 253.800781 153.625 266.425781 141 282 141 C 297.574219 141 310.199219 153.625 310.199219 169.199219 L 310.199219 188 C 310.199219 203.574219 297.574219 216.199219 282 216.199219 C 266.425781 216.199219 253.800781 203.574219 253.800781 188 Z M 225.601562 282 C 225.601562 261.234375 242.433594 244.398438 263.199219 244.398438 L 300.800781 244.398438 C 321.566406 244.398438 338.398438 261.234375 338.398438 282 L 338.398438 319.601562 L 225.601562 319.601562 Z M 225.601562 282 " style=" stroke:none;fill-rule:nonzero;fill:rgb(100%,96.862745%,83.921569%);fill-opacity:1;" />
<path d="M 282 216.199219 C 297.574219 216.199219 310.199219 203.574219 310.199219 188 L 310.199219 169.199219 C 310.199219 153.625 297.574219 141 282 141 C 266.425781 141 253.800781 153.625 253.800781 169.199219 L 253.800781 188 C 253.800781 203.574219 266.425781 216.199219 282 216.199219 Z M 282 216.199219 " style=" stroke:none;fill-rule:nonzero;fill:rgb(20%,54.117647%,95.294118%);fill-opacity:1;" />
<path d="M 338.398438 282 C 338.398438 261.234375 321.566406 244.398438 300.800781 244.398438 L 263.199219 244.398438 C 242.433594 244.398438 225.601562 261.234375 225.601562 282 L 225.601562 319.601562 L 338.398438 319.601562 Z M 338.398438 282 " style=" stroke:none;fill-rule:nonzero;fill:rgb(20%,54.117647%,95.294118%);fill-opacity:1;" />
<path d="M 535.800781 0 L 28.199219 0 C 12.625 0 0 12.625 0 28.199219 L 0 535.800781 C 0 551.375 12.625 564 28.199219 564 L 535.800781 564 C 551.375 564 564 551.375 564 535.800781 L 564 28.199219 C 564 12.625 551.375 0 535.800781 0 Z M 28.199219 18.800781 L 535.800781 18.800781 C 540.992188 18.800781 545.199219 23.007812 545.199219 28.199219 L 545.199219 56.398438 L 18.800781 56.398438 L 18.800781 28.199219 C 18.800781 23.007812 23.007812 18.800781 28.199219 18.800781 Z M 535.800781 545.199219 L 28.199219 545.199219 C 23.007812 545.199219 18.800781 540.992188 18.800781 535.800781 L 18.800781 75.199219 L 545.199219 75.199219 L 545.199219 535.800781 C 545.199219 540.992188 540.992188 545.199219 535.800781 545.199219 Z M 535.800781 545.199219 " style=" stroke:none;fill-rule:nonzero;fill:rgb(13.72549%,12.156863%,12.54902%);fill-opacity:1;" />
<path d="M 37.601562 28.199219 L 56.398438 28.199219 L 56.398438 47 L 37.601562 47 Z M 37.601562 28.199219 " style=" stroke:none;fill-rule:nonzero;fill:rgb(13.72549%,12.156863%,12.54902%);fill-opacity:1;" />
<path d="M 84.601562 28.199219 L 103.398438 28.199219 L 103.398438 47 L 84.601562 47 Z M 84.601562 28.199219 " style=" stroke:none;fill-rule:nonzero;fill:rgb(13.72549%,12.156863%,12.54902%);fill-opacity:1;" />
<path d="M 131.601562 28.199219 L 150.398438 28.199219 L 150.398438 47 L 131.601562 47 Z M 131.601562 28.199219 " style=" stroke:none;fill-rule:nonzero;fill:rgb(13.72549%,12.156863%,12.54902%);fill-opacity:1;" />
<path d="M 282 376 C 359.871094 376 423 312.871094 423 235 C 423 157.128906 359.871094 94 282 94 C 204.128906 94 141 157.128906 141 235 C 141.089844 312.835938 204.164062 375.910156 282 376 Z M 282 112.800781 C 349.488281 112.800781 404.199219 167.511719 404.199219 235 C 404.199219 302.488281 349.488281 357.199219 282 357.199219 C 214.511719 357.199219 159.800781 302.488281 159.800781 235 C 159.878906 167.542969 214.542969 112.878906 282 112.800781 Z M 282 112.800781 " style=" stroke:none;fill-rule:nonzero;fill:rgb(13.72549%,12.156863%,12.54902%);fill-opacity:1;" />
<path d="M 56.398438 394.800781 L 244.398438 394.800781 L 244.398438 413.601562 L 56.398438 413.601562 Z M 56.398438 394.800781 " style=" stroke:none;fill-rule:nonzero;fill:rgb(13.72549%,12.156863%,12.54902%);fill-opacity:1;" />
<path d="M 253.800781 394.800781 L 357.199219 394.800781 L 357.199219 413.601562 L 253.800781 413.601562 Z M 253.800781 394.800781 " style=" stroke:none;fill-rule:nonzero;fill:rgb(13.72549%,12.156863%,12.54902%);fill-opacity:1;" />
<path d="M 366.601562 394.800781 L 507.601562 394.800781 L 507.601562 413.601562 L 366.601562 413.601562 Z M 366.601562 394.800781 " style=" stroke:none;fill-rule:nonzero;fill:rgb(13.72549%,12.156863%,12.54902%);fill-opacity:1;" />
<path d="M 56.398438 432.398438 L 253.800781 432.398438 L 253.800781 451.199219 L 56.398438 451.199219 Z M 56.398438 432.398438 " style=" stroke:none;fill-rule:nonzero;fill:rgb(13.72549%,12.156863%,12.54902%);fill-opacity:1;" />
<path d="M 263.199219 432.398438 L 507.601562 432.398438 L 507.601562 451.199219 L 263.199219 451.199219 Z M 263.199219 432.398438 " style=" stroke:none;fill-rule:nonzero;fill:rgb(13.72549%,12.156863%,12.54902%);fill-opacity:1;" />
<path d="M 56.398438 470 L 169.199219 470 L 169.199219 488.800781 L 56.398438 488.800781 Z M 56.398438 470 " style=" stroke:none;fill-rule:nonzero;fill:rgb(13.72549%,12.156863%,12.54902%);fill-opacity:1;" />
<path d="M 178.601562 470 L 282 470 L 282 488.800781 L 178.601562 488.800781 Z M 178.601562 470 " style=" stroke:none;fill-rule:nonzero;fill:rgb(13.72549%,12.156863%,12.54902%);fill-opacity:1;" />
<path d="M 291.398438 470 L 441.800781 470 L 441.800781 488.800781 L 291.398438 488.800781 Z M 291.398438 470 " style=" stroke:none;fill-rule:nonzero;fill:rgb(13.72549%,12.156863%,12.54902%);fill-opacity:1;" />
<path d="M 451.199219 470 L 507.601562 470 L 507.601562 488.800781 L 451.199219 488.800781 Z M 451.199219 470 " style=" stroke:none;fill-rule:nonzero;fill:rgb(13.72549%,12.156863%,12.54902%);fill-opacity:1;" />
<path d="M 56.398438 507.601562 L 507.601562 507.601562 L 507.601562 526.398438 L 56.398438 526.398438 Z M 56.398438 507.601562 " style=" stroke:none;fill-rule:nonzero;fill:rgb(13.72549%,12.156863%,12.54902%);fill-opacity:1;" />
<path d="M 282 225.601562 C 302.765625 225.601562 319.601562 208.765625 319.601562 188 L 319.601562 169.199219 C 319.601562 148.433594 302.765625 131.601562 282 131.601562 C 261.234375 131.601562 244.398438 148.433594 244.398438 169.199219 L 244.398438 188 C 244.398438 208.765625 261.234375 225.601562 282 225.601562 Z M 263.199219 169.199219 C 263.199219 158.816406 271.617188 150.398438 282 150.398438 C 292.382812 150.398438 300.800781 158.816406 300.800781 169.199219 L 300.800781 188 C 300.800781 198.382812 292.382812 206.800781 282 206.800781 C 271.617188 206.800781 263.199219 198.382812 263.199219 188 Z M 263.199219 169.199219 " style=" stroke:none;fill-rule:nonzero;fill:rgb(13.72549%,12.156863%,12.54902%);fill-opacity:1;" />
<path d="M 225.601562 329 L 338.398438 329 C 343.589844 329 347.800781 324.789062 347.800781 319.601562 L 347.800781 282 C 347.769531 256.054688 326.742188 235.03125 300.800781 235 L 263.199219 235 C 237.253906 235.03125 216.230469 256.054688 216.199219 282 L 216.199219 319.601562 C 216.199219 324.789062 220.410156 329 225.601562 329 Z M 235 282 C 235 266.425781 247.625 253.800781 263.199219 253.800781 L 300.800781 253.800781 C 316.375 253.800781 329 266.425781 329 282 L 329 310.199219 L 235 310.199219 Z M 235 282 " style=" stroke:none;fill-rule:nonzero;fill:rgb(13.72549%,12.156863%,12.54902%);fill-opacity:1;" />
</g>
</svg>