<?xml version="1.0" encoding="iso-8859-1"?>
<!-- Generator: Adobe Illustrator 19.0.0, SVG Export Plug-In . SVG Version: 6.00 Build 0)  -->
<svg version="1.1" id="Capa_1" xmlns="http://www.w3.org/2000/svg" xmlns:xlink="http://www.w3.org/1999/xlink" x="0px" y="0px"
	 viewBox="0 0 468.293 468.293" style="enable-background:new 0 0 468.293 468.293;" xml:space="preserve">
<path style="fill:#3A556A;" d="M372.02,449.022H96.273c-13.794,0-24.976-11.182-24.976-24.976V24.976
	C71.297,11.182,82.479,0,96.273,0H372.02c13.794,0,24.976,11.182,24.976,24.976v399.071
	C396.996,437.84,385.814,449.022,372.02,449.022z"/>
<path style="fill:#64798A;" d="M114.951,380.393V68.632c0-13.794,11.182-24.976,24.976-24.976h188.436
	c13.794,0,24.976,11.182,24.976,24.976v311.761c0,13.794-11.182,24.976-24.976,24.976H139.927
	C126.133,405.368,114.951,394.186,114.951,380.393z"/>
<g>
	<path style="fill:#2F4859;" d="M130.354,468.293H107.13c-3.448,0-6.244-2.796-6.244-6.244v-14.01h35.712v14.01
		C136.598,465.497,133.803,468.293,130.354,468.293z"/>
	<path style="fill:#2F4859;" d="M361.162,468.293h-23.224c-3.448,0-6.244-2.796-6.244-6.244v-14.01h35.712v14.01
		C367.406,465.497,364.611,468.293,361.162,468.293z"/>
</g>
<g>
	<path style="fill:#D5D6DB;" d="M123.174,118.02h-16.447c-3.448,0-6.244-2.795-6.244-6.244v-24.14c0-3.448,2.795-6.244,6.244-6.244
		h16.447c3.448,0,6.244,2.795,6.244,6.244v24.14C129.418,115.224,126.623,118.02,123.174,118.02z"/>
	<path style="fill:#D5D6DB;" d="M123.174,173.357h-16.447c-3.448,0-6.244-2.795-6.244-6.244v-24.14c0-3.448,2.795-6.244,6.244-6.244
		h16.447c3.448,0,6.244,2.796,6.244,6.244v24.14C129.418,170.562,126.623,173.357,123.174,173.357z"/>
	<path style="fill:#D5D6DB;" d="M123.174,312.295h-16.447c-3.448,0-6.244-2.796-6.244-6.244v-24.14c0-3.448,2.795-6.244,6.244-6.244
		h16.447c3.448,0,6.244,2.795,6.244,6.244v24.14C129.418,309.499,126.623,312.295,123.174,312.295z"/>
	<path style="fill:#D5D6DB;" d="M123.174,367.632h-16.447c-3.448,0-6.244-2.796-6.244-6.244v-24.14c0-3.448,2.795-6.244,6.244-6.244
		h16.447c3.448,0,6.244,2.796,6.244,6.244v24.14C129.418,364.837,126.623,367.632,123.174,367.632z"/>
	<path style="fill:#D5D6DB;" d="M212.819,191.581l-11.605,11.604l-27.107-27.107c-3.162-3.162-3.162-8.288,0-11.45l0.155-0.155
		c3.162-3.162,8.288-3.162,11.45,0L212.819,191.581z"/>
	<path style="fill:#D5D6DB;" d="M267.076,245.838l-11.605,11.604l27.107,27.107c3.162,3.162,8.288,3.162,11.45,0l0.155-0.155
		c3.162-3.162,3.162-8.288,0-11.45L267.076,245.838z"/>
	<path style="fill:#D5D6DB;" d="M267.075,203.187l-11.604-11.605l27.107-27.107c3.162-3.162,8.288-3.162,11.45,0l0.155,0.155
		c3.162,3.162,3.162,8.288,0,11.45L267.075,203.187z"/>
	<path style="fill:#D5D6DB;" d="M212.818,257.443l-11.604-11.605l-27.107,27.107c-3.162,3.162-3.162,8.288,0,11.45l0.155,0.155
		c3.162,3.162,8.288,3.162,11.45,0L212.818,257.443z"/>
</g>
<circle style="fill:#E1E6E9;" cx="234.146" cy="224.512" r="43.158"/>
<circle style="fill:#D5D6DB;" cx="234.146" cy="224.512" r="28.347"/>
<g>
</g>
<g>
</g>
<g>
</g>
<g>
</g>
<g>
</g>
<g>
</g>
<g>
</g>
<g>
</g>
<g>
</g>
<g>
</g>
<g>
</g>
<g>
</g>
<g>
</g>
<g>
</g>
<g>
</g>
</svg>
